<svg xmlns="http://www.w3.org/2000/svg" viewBox="0 0 800 600" width="800" height="600" role="img" aria-label="Baby nappies, size 4"><title>Baby nappies, size 4</title><defs><radialGradient id="baby172908_3" cx="34%" cy="22%" r="86%"><stop offset="0" stop-color="#FFFFFF"/><stop offset=".55" stop-color="#F5FAFC"/><stop offset="1" stop-color="#E3F2F6"/></radialGradient><filter id="baby172908_1" x="-40%" y="-40%" width="180%" height="180%"><feGaussianBlur stdDeviation="19.0"/></filter><linearGradient id="baby172908_2" x1="0" y1="0" x2="1" y2="0"><stop offset="0" stop-color="#7EACB6"/><stop offset=".5" stop-color="#B0DCE5"/><stop offset="1" stop-color="#729BA4"/></linearGradient></defs><rect width="800" height="600" fill="url(#baby172908_3)"/><ellipse cx="400" cy="486" rx="190" ry="26" fill="#22303C" opacity="0.2" filter="url(#baby172908_1)"/><path d="M236,244 Q400,214 564,244 L554,462 Q400,496 246,462 Z" fill="url(#baby172908_2)"/><path d="M236,244 Q400,214 564,244 L562,282 Q400,254 238,282 Z" fill="#BCE1E9"/><rect x="352" y="222" width="96" height="24" rx="12" fill="#2E9DB0" opacity=".9"/><rect x="282.0" y="300" width="236" height="132" rx="8" fill="#FFFFFF" opacity="0.95"/><text x="400" y="343.96" font-family="Arial, Helvetica, sans-serif" font-size="16" font-weight="700" letter-spacing="0.5" fill="#2E9DB0" text-anchor="middle">BABY</text><text x="400" y="374.96" font-family="Arial, Helvetica, sans-serif" font-size="26" font-weight="800" letter-spacing="2.2" fill="#206E7B" text-anchor="middle">NAPPIES</text><rect x="329.28" y="386.96" width="141.44" height="3" fill="#2E9DB0"/><text x="400" y="409.96" font-family="Arial, Helvetica, sans-serif" font-size="12" font-weight="600" letter-spacing="0.5" fill="#2E9DB0" text-anchor="middle">size 4 · 30 pcs</text><path d="M262,286 q-6,96 2,166" stroke="#fff" stroke-width="18" fill="none" opacity=".26"/></svg>