<svg xmlns="http://www.w3.org/2000/svg" viewBox="0 0 800 600" width="800" height="600" role="img" aria-label="Bath soap, 3 pack"><title>Bath soap, 3 pack</title><defs><radialGradient id="bath2a4233_4" cx="34%" cy="22%" r="86%"><stop offset="0" stop-color="#FFFFFF"/><stop offset=".55" stop-color="#FCF8F9"/><stop offset="1" stop-color="#F7EBEE"/></radialGradient><filter id="bath2a4233_1" x="-40%" y="-40%" width="180%" height="180%"><feGaussianBlur stdDeviation="17.6"/></filter><linearGradient id="bath2a4233_2" x1="0" y1="0" x2="1" y2="0"><stop offset="0" stop-color="#C09BA5"/><stop offset=".5" stop-color="#E7BFCA"/><stop offset="1" stop-color="#A98891"/></linearGradient><linearGradient id="bath2a4233_3" x1="0" y1="0" x2="0" y2="1"><stop offset="0" stop-color="#ECCDD6"/><stop offset="1" stop-color="#E7C1CB"/></linearGradient></defs><rect width="800" height="600" fill="url(#bath2a4233_4)"/><ellipse cx="400" cy="456" rx="176" ry="26" fill="#22303C" opacity="0.2" filter="url(#bath2a4233_1)"/><path d="M256,316 L544,316 Q556,316 556,328 L556,338 L244,338 L244,328 Q244,316 256,316 Z" fill="url(#bath2a4233_3)"/><rect x="244" y="338" width="312" height="108" rx="12" fill="url(#bath2a4233_2)"/><rect x="244" y="338" width="49.92" height="108" rx="12" fill="#fff" opacity=".14"/><rect x="506.08" y="338" width="49.92" height="108" rx="12" fill="#000" opacity=".10"/><rect x="278.0" y="352" width="244" height="82" rx="8" fill="#FFFFFF" opacity="0.95"/><text x="400" y="395.64" font-family="Arial, Helvetica, sans-serif" font-size="24" font-weight="800" letter-spacing="2.2" fill="#7B344D" text-anchor="middle">BATH SOAP</text><text x="400" y="413.64" font-family="Arial, Helvetica, sans-serif" font-size="12" font-weight="600" letter-spacing="0.5" fill="#B04A6E" text-anchor="middle">3 × 100 g</text></svg>