<svg xmlns="http://www.w3.org/2000/svg" viewBox="0 0 800 600" width="800" height="600" role="img" aria-label="Carrots"><title>Carrots</title><defs><radialGradient id="carrb1e74c_17" cx="34%" cy="22%" r="86%"><stop offset="0" stop-color="#FFFFFF"/><stop offset=".55" stop-color="#FAF2EA"/><stop offset="1" stop-color="#F1DAC6"/></radialGradient><filter id="carrb1e74c_1" x="-40%" y="-40%" width="180%" height="180%"><feGaussianBlur stdDeviation="20.0"/></filter><linearGradient id="carrb1e74c_2" x1="0" y1="0" x2="1" y2="0"><stop offset="0" stop-color="#985A25"/><stop offset=".5" stop-color="#D79257"/><stop offset="1" stop-color="#905523"/></linearGradient><linearGradient id="carrb1e74c_3" x1="0" y1="0" x2="0" y2="1"><stop offset="0" stop-color="#8BB284"/><stop offset="1" stop-color="#3A6632"/></linearGradient><linearGradient id="carrb1e74c_4" x1="0" y1="0" x2="0" y2="1"><stop offset="0" stop-color="#8BB284"/><stop offset="1" stop-color="#3A6632"/></linearGradient><linearGradient id="carrb1e74c_5" x1="0" y1="0" x2="0" y2="1"><stop offset="0" stop-color="#8BB284"/><stop offset="1" stop-color="#3A6632"/></linearGradient><linearGradient id="carrb1e74c_6" x1="0" y1="0" x2="0" y2="1"><stop offset="0" stop-color="#8BB284"/><stop offset="1" stop-color="#3A6632"/></linearGradient><linearGradient id="carrb1e74c_7" x1="0" y1="0" x2="1" y2="0"><stop offset="0" stop-color="#9B5C24"/><stop offset=".5" stop-color="#DA9456"/><stop offset="1" stop-color="#935822"/></linearGradient><linearGradient id="carrb1e74c_8" x1="0" y1="0" x2="0" y2="1"><stop offset="0" stop-color="#8BB284"/><stop offset="1" stop-color="#3A6632"/></linearGradient><linearGradient id="carrb1e74c_9" x1="0" y1="0" x2="0" y2="1"><stop offset="0" stop-color="#8BB284"/><stop offset="1" stop-color="#3A6632"/></linearGradient><linearGradient id="carrb1e74c_10" x1="0" y1="0" x2="0" y2="1"><stop offset="0" stop-color="#8BB284"/><stop offset="1" stop-color="#3A6632"/></linearGradient><linearGradient id="carrb1e74c_11" x1="0" y1="0" x2="0" y2="1"><stop offset="0" stop-color="#8BB284"/><stop offset="1" stop-color="#3A6632"/></linearGradient><linearGradient id="carrb1e74c_12" x1="0" y1="0" x2="1" y2="0"><stop offset="0" stop-color="#985A25"/><stop offset=".5" stop-color="#D79257"/><stop offset="1" stop-color="#905523"/></linearGradient><linearGradient id="carrb1e74c_13" x1="0" y1="0" x2="0" y2="1"><stop offset="0" stop-color="#8BB284"/><stop offset="1" stop-color="#3A6632"/></linearGradient><linearGradient id="carrb1e74c_14" x1="0" y1="0" x2="0" y2="1"><stop offset="0" stop-color="#8BB284"/><stop offset="1" stop-color="#3A6632"/></linearGradient><linearGradient id="carrb1e74c_15" x1="0" y1="0" x2="0" y2="1"><stop offset="0" stop-color="#8BB284"/><stop offset="1" stop-color="#3A6632"/></linearGradient><linearGradient id="carrb1e74c_16" x1="0" y1="0" x2="0" y2="1"><stop offset="0" stop-color="#8BB284"/><stop offset="1" stop-color="#3A6632"/></linearGradient></defs><rect width="800" height="600" fill="url(#carrb1e74c_17)"/><ellipse cx="400" cy="486" rx="200" ry="28" fill="#22303C" opacity="0.2" filter="url(#carrb1e74c_1)"/><g transform="rotate(-22 292 360)"><path d="M246,250 Q292,232 338,250 L304,476 Q292,492 280,476 Z" fill="url(#carrb1e74c_2)"/><path d="M252,280 q40,12 80,0" stroke="#905523" stroke-width="2.6" fill="none" opacity=".45"/><path d="M257,318 q40,12 70,0" stroke="#905523" stroke-width="2.6" fill="none" opacity=".45"/><path d="M262,356 q40,12 60,0" stroke="#905523" stroke-width="2.6" fill="none" opacity=".45"/><path d="M267,394 q40,12 50,0" stroke="#905523" stroke-width="2.6" fill="none" opacity=".45"/><path d="M272,432 q40,12 40,0" stroke="#905523" stroke-width="2.6" fill="none" opacity=".45"/><g transform="rotate(-40 292 248)"><path d="M292,248 Q266,193.0 292,138 Q318,193.0 292,248 Z" fill="url(#carrb1e74c_3)"/><path d="M292,248 L292,138" stroke="#95B98F" stroke-width="2.6" opacity=".55" fill="none"/></g><g transform="rotate(-14 292 248)"><path d="M292,248 Q266,193.0 292,138 Q318,193.0 292,248 Z" fill="url(#carrb1e74c_4)"/><path d="M292,248 L292,138" stroke="#95B98F" stroke-width="2.6" opacity=".55" fill="none"/></g><g transform="rotate(12 292 248)"><path d="M292,248 Q266,193.0 292,138 Q318,193.0 292,248 Z" fill="url(#carrb1e74c_5)"/><path d="M292,248 L292,138" stroke="#95B98F" stroke-width="2.6" opacity=".55" fill="none"/></g><g transform="rotate(38 292 248)"><path d="M292,248 Q266,193.0 292,138 Q318,193.0 292,248 Z" fill="url(#carrb1e74c_6)"/><path d="M292,248 L292,138" stroke="#95B98F" stroke-width="2.6" opacity=".55" fill="none"/></g></g><g transform="rotate(-2 400 360)"><path d="M354,250 Q400,232 446,250 L412,476 Q400,492 388,476 Z" fill="url(#carrb1e74c_7)"/><path d="M360,280 q40,12 80,0" stroke="#935822" stroke-width="2.6" fill="none" opacity=".45"/><path d="M365,318 q40,12 70,0" stroke="#935822" stroke-width="2.6" fill="none" opacity=".45"/><path d="M370,356 q40,12 60,0" stroke="#935822" stroke-width="2.6" fill="none" opacity=".45"/><path d="M375,394 q40,12 50,0" stroke="#935822" stroke-width="2.6" fill="none" opacity=".45"/><path d="M380,432 q40,12 40,0" stroke="#935822" stroke-width="2.6" fill="none" opacity=".45"/><g transform="rotate(-40 400 248)"><path d="M400,248 Q374,193.0 400,138 Q426,193.0 400,248 Z" fill="url(#carrb1e74c_8)"/><path d="M400,248 L400,138" stroke="#95B98F" stroke-width="2.6" opacity=".55" fill="none"/></g><g transform="rotate(-14 400 248)"><path d="M400,248 Q374,193.0 400,138 Q426,193.0 400,248 Z" fill="url(#carrb1e74c_9)"/><path d="M400,248 L400,138" stroke="#95B98F" stroke-width="2.6" opacity=".55" fill="none"/></g><g transform="rotate(12 400 248)"><path d="M400,248 Q374,193.0 400,138 Q426,193.0 400,248 Z" fill="url(#carrb1e74c_10)"/><path d="M400,248 L400,138" stroke="#95B98F" stroke-width="2.6" opacity=".55" fill="none"/></g><g transform="rotate(38 400 248)"><path d="M400,248 Q374,193.0 400,138 Q426,193.0 400,248 Z" fill="url(#carrb1e74c_11)"/><path d="M400,248 L400,138" stroke="#95B98F" stroke-width="2.6" opacity=".55" fill="none"/></g></g><g transform="rotate(20 508 360)"><path d="M462,250 Q508,232 554,250 L520,476 Q508,492 496,476 Z" fill="url(#carrb1e74c_12)"/><path d="M468,280 q40,12 80,0" stroke="#905523" stroke-width="2.6" fill="none" opacity=".45"/><path d="M473,318 q40,12 70,0" stroke="#905523" stroke-width="2.6" fill="none" opacity=".45"/><path d="M478,356 q40,12 60,0" stroke="#905523" stroke-width="2.6" fill="none" opacity=".45"/><path d="M483,394 q40,12 50,0" stroke="#905523" stroke-width="2.6" fill="none" opacity=".45"/><path d="M488,432 q40,12 40,0" stroke="#905523" stroke-width="2.6" fill="none" opacity=".45"/><g transform="rotate(-40 508 248)"><path d="M508,248 Q482,193.0 508,138 Q534,193.0 508,248 Z" fill="url(#carrb1e74c_13)"/><path d="M508,248 L508,138" stroke="#95B98F" stroke-width="2.6" opacity=".55" fill="none"/></g><g transform="rotate(-14 508 248)"><path d="M508,248 Q482,193.0 508,138 Q534,193.0 508,248 Z" fill="url(#carrb1e74c_14)"/><path d="M508,248 L508,138" stroke="#95B98F" stroke-width="2.6" opacity=".55" fill="none"/></g><g transform="rotate(12 508 248)"><path d="M508,248 Q482,193.0 508,138 Q534,193.0 508,248 Z" fill="url(#carrb1e74c_15)"/><path d="M508,248 L508,138" stroke="#95B98F" stroke-width="2.6" opacity=".55" fill="none"/></g><g transform="rotate(38 508 248)"><path d="M508,248 Q482,193.0 508,138 Q534,193.0 508,248 Z" fill="url(#carrb1e74c_16)"/><path d="M508,248 L508,138" stroke="#95B98F" stroke-width="2.6" opacity=".55" fill="none"/></g></g></svg>