<svg xmlns="http://www.w3.org/2000/svg" viewBox="0 0 800 600" width="800" height="600" role="img" aria-label="Fresh milk 1L"><title>Fresh milk 1L</title><defs><radialGradient id="fres87dee2_3" cx="34%" cy="22%" r="86%"><stop offset="0" stop-color="#FFFFFF"/><stop offset=".55" stop-color="#FCFCFD"/><stop offset="1" stop-color="#F5F7FA"/></radialGradient><filter id="fres87dee2_1" x="-40%" y="-40%" width="180%" height="180%"><feGaussianBlur stdDeviation="16.5"/></filter><linearGradient id="fres87dee2_2" x1="0" y1="0" x2="1" y2="0"><stop offset="0" stop-color="#CDD0D4"/><stop offset=".5" stop-color="#FFFFFF"/><stop offset="1" stop-color="#BEC2C5"/></linearGradient></defs><rect width="800" height="600" fill="url(#fres87dee2_3)"/><ellipse cx="400" cy="488" rx="165" ry="26" fill="#22303C" opacity="0.2" filter="url(#fres87dee2_1)"/><path d="M302,232 L400,182 L498,232 L498,262 L302,262 Z" fill="#D1D5D8"/><path d="M302,232 L400,182 L400,262 L302,262 Z" fill="#F5F7FA"/><rect x="386" y="176" width="28" height="26" rx="6" fill="#1B3EE8"/><rect x="302" y="258" width="196" height="230" rx="8" fill="url(#fres87dee2_2)"/><rect x="302.0" y="306" width="196" height="92" rx="0" fill="#1B3EE8" opacity="0.95"/><text x="400" y="355.09" font-family="Arial, Helvetica, sans-serif" font-size="27" font-weight="800" letter-spacing="2.2" fill="#FFFFFF" text-anchor="middle">FRESH</text><text x="400" y="375.09" font-family="Arial, Helvetica, sans-serif" font-size="14" font-weight="600" letter-spacing="0.5" fill="#C3D0FF" text-anchor="middle">WHOLE MILK</text><text x="400" y="442" font-family="Arial, Helvetica, sans-serif" font-size="18" font-weight="700" letter-spacing="0.5" fill="#646667" text-anchor="2.6">1 LITRE</text><path d="M348,418 q52,-14 104,0" stroke="#C3C6CA" stroke-width="3" fill="none" opacity=".6"/><rect x="314" y="266" width="20" height="214" rx="10" fill="#fff" opacity=".55"/></svg>