<svg xmlns="http://www.w3.org/2000/svg" viewBox="0 0 800 600" width="800" height="600" role="img" aria-label="Margarine 500g"><title>Margarine 500g</title><defs><radialGradient id="margdb9dbd_3" cx="34%" cy="22%" r="86%"><stop offset="0" stop-color="#FFFFFF"/><stop offset=".55" stop-color="#FDFAF0"/><stop offset="1" stop-color="#F9F0D5"/></radialGradient><filter id="margdb9dbd_1" x="-40%" y="-40%" width="180%" height="180%"><feGaussianBlur stdDeviation="15.0"/></filter><linearGradient id="margdb9dbd_2" x1="0" y1="0" x2="1" y2="0"><stop offset="0" stop-color="#B59D53"/><stop offset=".5" stop-color="#ECD282"/><stop offset="1" stop-color="#A28D4A"/></linearGradient></defs><rect width="800" height="600" fill="url(#margdb9dbd_3)"/><ellipse cx="400" cy="486" rx="150" ry="26" fill="#22303C" opacity="0.2" filter="url(#margdb9dbd_1)"/><path d="M290.0,268 L290.0,476 A110.0,28 0 0 0 510.0,476 L510.0,268 Z" fill="url(#margdb9dbd_2)"/><ellipse cx="400" cy="268" rx="110.0" ry="28" fill="#EED894"/><ellipse cx="400" cy="268" rx="81.4" ry="19.599999999999998" fill="#C8B57C"/><ellipse cx="400" cy="258" rx="110" ry="28" fill="#1B6CA8"/><rect x="290" y="232" width="220" height="30" rx="8" fill="#1B6CA8"/><rect x="290" y="232" width="220" height="9" rx="4" fill="#699EC6"/><rect x="311.0" y="312" width="178" height="118" rx="8" fill="#FFFFFF" opacity="0.95"/><text x="400" y="348.96" font-family="Arial, Helvetica, sans-serif" font-size="16" font-weight="700" letter-spacing="0.5" fill="#1B6CA8" text-anchor="middle">BLUE BAND</text><text x="400" y="379.96" font-family="Arial, Helvetica, sans-serif" font-size="26" font-weight="800" letter-spacing="2.2" fill="#134C76" text-anchor="middle">SPREAD</text><rect x="349.0" y="391.96" width="102.00000000000001" height="3" fill="#1B6CA8"/><text x="400" y="414.96" font-family="Arial, Helvetica, sans-serif" font-size="12" font-weight="600" letter-spacing="0.5" fill="#1B6CA8" text-anchor="middle">500 g</text><path d="M312,292 q8,86 4,148" stroke="#fff" stroke-width="14" fill="none" opacity=".26"/></svg>