<svg xmlns="http://www.w3.org/2000/svg" viewBox="0 0 800 600" width="800" height="600" role="img" aria-label="Nile perch fillet"><title>Nile perch fillet</title><defs><radialGradient id="nileeb5b4a_4" cx="34%" cy="22%" r="86%"><stop offset="0" stop-color="#FFFFFF"/><stop offset=".55" stop-color="#FCF7F6"/><stop offset="1" stop-color="#F6E9E5"/></radialGradient><filter id="nileeb5b4a_1" x="-40%" y="-40%" width="180%" height="180%"><feGaussianBlur stdDeviation="22.0"/></filter><linearGradient id="nileeb5b4a_2" x1="0" y1="0" x2="0" y2="1"><stop offset="0" stop-color="#F2DBD3"/><stop offset=".5" stop-color="#ECC8BD"/><stop offset="1" stop-color="#B89C93"/></linearGradient><linearGradient id="nileeb5b4a_3" x1="0" y1="0" x2="0" y2="1"><stop offset="0" stop-color="#F2DBD3"/><stop offset=".5" stop-color="#ECC8BD"/><stop offset="1" stop-color="#B89C93"/></linearGradient></defs><rect width="800" height="600" fill="url(#nileeb5b4a_4)"/><ellipse cx="400" cy="468" rx="220" ry="30" fill="#22303C" opacity="0.2" filter="url(#nileeb5b4a_1)"/><g transform="rotate(-7 388 348)"><path d="M174,326 C238,308 368,306 496,324 C568,334 604,346 600,354 C596,364 528,376 398,380 C280,384 198,378 176,368 C168,362 168,334 174,326 Z" fill="url(#nileeb5b4a_2)"/><path d="M192,346 C288,336 428,342 574,352" stroke="#BDA097" stroke-width="3.4" fill="none" opacity=".55"/><path d="M202,334 C292,318 428,320 538,338" stroke="#fff" stroke-width="12" fill="none" opacity=".42"/><path d="M176,368 C198,378 280,384 398,380 C528,376 596,364 600,354 L598,363 C592,374 526,386 398,390 C278,394 196,388 176,378 Z" fill="#B5B3B3"/><path d="M174,326 C168,334 168,362 176,368 L194,370 C186,360 186,336 192,326 Z" fill="#F5E1DB"/></g><g transform="rotate(5 412 428)"><path d="M198,406 C262,388 392,386 520,404 C592,414 628,426 624,434 C620,444 552,456 422,460 C304,464 222,458 200,448 C192,442 192,414 198,406 Z" fill="url(#nileeb5b4a_3)"/><path d="M216,426 C312,416 452,422 598,432" stroke="#BDA097" stroke-width="3.4" fill="none" opacity=".55"/><path d="M226,414 C316,398 452,400 562,418" stroke="#fff" stroke-width="12" fill="none" opacity=".42"/><path d="M200,448 C222,458 304,464 422,460 C552,456 620,444 624,434 L622,443 C616,454 550,466 422,470 C302,474 220,468 200,458 Z" fill="#B5B3B3"/><path d="M198,406 C192,414 192,442 200,448 L218,450 C210,440 210,416 216,406 Z" fill="#F5E1DB"/></g></svg>