<svg xmlns="http://www.w3.org/2000/svg" viewBox="0 0 800 600" width="800" height="600" role="img" aria-label="Pineapple"><title>Pineapple</title><defs><radialGradient id="pinec8aaa_19" cx="34%" cy="22%" r="86%"><stop offset="0" stop-color="#FFFFFF"/><stop offset=".55" stop-color="#FAF6EB"/><stop offset="1" stop-color="#F2E5C6"/></radialGradient><filter id="pinec8aaa_1" x="-40%" y="-40%" width="180%" height="180%"><feGaussianBlur stdDeviation="16.5"/></filter><clipPath id="pinec8aaa_2"><path d="M400,182 C492,182 524,252 524,344 C524,438 478,504 400,504 C322,504 276,438 276,344 C276,252 308,182 400,182 Z"/></clipPath><linearGradient id="pinec8aaa_3" x1="0" y1="0" x2="1" y2="0"><stop offset="0" stop-color="#906C20"/><stop offset=".5" stop-color="#E1B65A"/><stop offset="1" stop-color="#83621D"/></linearGradient><linearGradient id="pinec8aaa_4" x1="0" y1="0" x2="0" y2="1"><stop offset="0" stop-color="#7EA784"/><stop offset="1" stop-color="#2C5A32"/></linearGradient><linearGradient id="pinec8aaa_5" x1="0" y1="0" x2="0" y2="1"><stop offset="0" stop-color="#88B088"/><stop offset="1" stop-color="#386538"/></linearGradient><linearGradient id="pinec8aaa_6" x1="0" y1="0" x2="0" y2="1"><stop offset="0" stop-color="#93BA8D"/><stop offset="1" stop-color="#43703D"/></linearGradient><linearGradient id="pinec8aaa_7" x1="0" y1="0" x2="0" y2="1"><stop offset="0" stop-color="#9DC492"/><stop offset="1" stop-color="#4F7A43"/></linearGradient><linearGradient id="pinec8aaa_8" x1="0" y1="0" x2="0" y2="1"><stop offset="0" stop-color="#7EA784"/><stop offset="1" stop-color="#2C5A32"/></linearGradient><linearGradient id="pinec8aaa_9" x1="0" y1="0" x2="0" y2="1"><stop offset="0" stop-color="#88B088"/><stop offset="1" stop-color="#386538"/></linearGradient><linearGradient id="pinec8aaa_10" x1="0" y1="0" x2="0" y2="1"><stop offset="0" stop-color="#93BA8D"/><stop offset="1" stop-color="#43703D"/></linearGradient><linearGradient id="pinec8aaa_11" x1="0" y1="0" x2="0" y2="1"><stop offset="0" stop-color="#9DC492"/><stop offset="1" stop-color="#4F7A43"/></linearGradient><linearGradient id="pinec8aaa_12" x1="0" y1="0" x2="0" y2="1"><stop offset="0" stop-color="#7EA784"/><stop offset="1" stop-color="#2C5A32"/></linearGradient><linearGradient id="pinec8aaa_13" x1="0" y1="0" x2="0" y2="1"><stop offset="0" stop-color="#88B088"/><stop offset="1" stop-color="#386538"/></linearGradient><linearGradient id="pinec8aaa_14" x1="0" y1="0" x2="0" y2="1"><stop offset="0" stop-color="#93BA8D"/><stop offset="1" stop-color="#43703D"/></linearGradient><linearGradient id="pinec8aaa_15" x1="0" y1="0" x2="0" y2="1"><stop offset="0" stop-color="#9DC492"/><stop offset="1" stop-color="#4F7A43"/></linearGradient><linearGradient id="pinec8aaa_16" x1="0" y1="0" x2="0" y2="1"><stop offset="0" stop-color="#7EA784"/><stop offset="1" stop-color="#2C5A32"/></linearGradient><linearGradient id="pinec8aaa_17" x1="0" y1="0" x2="0" y2="1"><stop offset="0" stop-color="#88B088"/><stop offset="1" stop-color="#386538"/></linearGradient><linearGradient id="pinec8aaa_18" x1="0" y1="0" x2="0" y2="1"><stop offset="0" stop-color="#93BA8D"/><stop offset="1" stop-color="#43703D"/></linearGradient></defs><rect width="800" height="600" fill="url(#pinec8aaa_19)"/><ellipse cx="400" cy="508" rx="165" ry="26" fill="#22303C" opacity="0.2" filter="url(#pinec8aaa_1)"/><g transform="rotate(-56 400 214)"><path d="M400,214 Q378,169.12 400,82 Q422,169.12 400,214 Z" fill="url(#pinec8aaa_4)"/><path d="M400,214 L400,82" stroke="#89AF8F" stroke-width="2.2" opacity=".55" fill="none"/></g><g transform="rotate(-48 400 214)"><path d="M400,214 Q378,158.92 400,52 Q422,158.92 400,214 Z" fill="url(#pinec8aaa_5)"/><path d="M400,214 L400,52" stroke="#93B893" stroke-width="2.2" opacity=".55" fill="none"/></g><g transform="rotate(-40 400 214)"><path d="M400,214 Q378,148.72 400,22 Q422,148.72 400,214 Z" fill="url(#pinec8aaa_6)"/><path d="M400,214 L400,22" stroke="#9DC198" stroke-width="2.2" opacity=".55" fill="none"/></g><g transform="rotate(-32 400 214)"><path d="M400,214 Q378,138.51999999999998 400,-8 Q422,138.51999999999998 400,214 Z" fill="url(#pinec8aaa_7)"/><path d="M400,214 L400,-8" stroke="#A6C99C" stroke-width="2.2" opacity=".55" fill="none"/></g><g transform="rotate(-24 400 214)"><path d="M400,214 Q378,169.12 400,82 Q422,169.12 400,214 Z" fill="url(#pinec8aaa_8)"/><path d="M400,214 L400,82" stroke="#89AF8F" stroke-width="2.2" opacity=".55" fill="none"/></g><g transform="rotate(-16 400 214)"><path d="M400,214 Q378,158.92 400,52 Q422,158.92 400,214 Z" fill="url(#pinec8aaa_9)"/><path d="M400,214 L400,52" stroke="#93B893" stroke-width="2.2" opacity=".55" fill="none"/></g><g transform="rotate(-8 400 214)"><path d="M400,214 Q378,148.72 400,22 Q422,148.72 400,214 Z" fill="url(#pinec8aaa_10)"/><path d="M400,214 L400,22" stroke="#9DC198" stroke-width="2.2" opacity=".55" fill="none"/></g><g transform="rotate(0 400 214)"><path d="M400,214 Q378,138.51999999999998 400,-8 Q422,138.51999999999998 400,214 Z" fill="url(#pinec8aaa_11)"/><path d="M400,214 L400,-8" stroke="#A6C99C" stroke-width="2.2" opacity=".55" fill="none"/></g><g transform="rotate(8 400 214)"><path d="M400,214 Q378,169.12 400,82 Q422,169.12 400,214 Z" fill="url(#pinec8aaa_12)"/><path d="M400,214 L400,82" stroke="#89AF8F" stroke-width="2.2" opacity=".55" fill="none"/></g><g transform="rotate(16 400 214)"><path d="M400,214 Q378,158.92 400,52 Q422,158.92 400,214 Z" fill="url(#pinec8aaa_13)"/><path d="M400,214 L400,52" stroke="#93B893" stroke-width="2.2" opacity=".55" fill="none"/></g><g transform="rotate(24 400 214)"><path d="M400,214 Q378,148.72 400,22 Q422,148.72 400,214 Z" fill="url(#pinec8aaa_14)"/><path d="M400,214 L400,22" stroke="#9DC198" stroke-width="2.2" opacity=".55" fill="none"/></g><g transform="rotate(32 400 214)"><path d="M400,214 Q378,138.51999999999998 400,-8 Q422,138.51999999999998 400,214 Z" fill="url(#pinec8aaa_15)"/><path d="M400,214 L400,-8" stroke="#A6C99C" stroke-width="2.2" opacity=".55" fill="none"/></g><g transform="rotate(40 400 214)"><path d="M400,214 Q378,169.12 400,82 Q422,169.12 400,214 Z" fill="url(#pinec8aaa_16)"/><path d="M400,214 L400,82" stroke="#89AF8F" stroke-width="2.2" opacity=".55" fill="none"/></g><g transform="rotate(48 400 214)"><path d="M400,214 Q378,158.92 400,52 Q422,158.92 400,214 Z" fill="url(#pinec8aaa_17)"/><path d="M400,214 L400,52" stroke="#93B893" stroke-width="2.2" opacity=".55" fill="none"/></g><g transform="rotate(56 400 214)"><path d="M400,214 Q378,148.72 400,22 Q422,148.72 400,214 Z" fill="url(#pinec8aaa_18)"/><path d="M400,214 L400,22" stroke="#9DC198" stroke-width="2.2" opacity=".55" fill="none"/></g><path d="M400,182 C492,182 524,252 524,344 C524,438 478,504 400,504 C322,504 276,438 276,344 C276,252 308,182 400,182 Z" fill="url(#pinec8aaa_3)"/><g clip-path="url(#pinec8aaa_2)"><path d="M250,171 L267,186 L250,201 L233,186 Z" fill="none" stroke="#7E5F1C" stroke-width="2.6" opacity=".62"/><path d="M244,182 l12,8" stroke="#6D5218" stroke-width="3.4" opacity=".5" stroke-linecap="round"/><path d="M284,171 L301,186 L284,201 L267,186 Z" fill="none" stroke="#7E5F1C" stroke-width="2.6" opacity=".62"/><path d="M278,182 l12,8" stroke="#6D5218" stroke-width="3.4" opacity=".5" stroke-linecap="round"/><path d="M318,171 L335,186 L318,201 L301,186 Z" fill="none" stroke="#7E5F1C" stroke-width="2.6" opacity=".62"/><path d="M312,182 l12,8" stroke="#6D5218" stroke-width="3.4" opacity=".5" stroke-linecap="round"/><path d="M352,171 L369,186 L352,201 L335,186 Z" fill="none" stroke="#7E5F1C" stroke-width="2.6" opacity=".62"/><path d="M346,182 l12,8" stroke="#6D5218" stroke-width="3.4" opacity=".5" stroke-linecap="round"/><path d="M386,171 L403,186 L386,201 L369,186 Z" fill="none" stroke="#7E5F1C" stroke-width="2.6" opacity=".62"/><path d="M380,182 l12,8" stroke="#6D5218" stroke-width="3.4" opacity=".5" stroke-linecap="round"/><path d="M420,171 L437,186 L420,201 L403,186 Z" fill="none" stroke="#7E5F1C" stroke-width="2.6" opacity=".62"/><path d="M414,182 l12,8" stroke="#6D5218" stroke-width="3.4" opacity=".5" stroke-linecap="round"/><path d="M454,171 L471,186 L454,201 L437,186 Z" fill="none" stroke="#7E5F1C" stroke-width="2.6" opacity=".62"/><path d="M448,182 l12,8" stroke="#6D5218" stroke-width="3.4" opacity=".5" stroke-linecap="round"/><path d="M488,171 L505,186 L488,201 L471,186 Z" fill="none" stroke="#7E5F1C" stroke-width="2.6" opacity=".62"/><path d="M482,182 l12,8" stroke="#6D5218" stroke-width="3.4" opacity=".5" stroke-linecap="round"/><path d="M522,171 L539,186 L522,201 L505,186 Z" fill="none" stroke="#7E5F1C" stroke-width="2.6" opacity=".62"/><path d="M516,182 l12,8" stroke="#6D5218" stroke-width="3.4" opacity=".5" stroke-linecap="round"/><path d="M267,201 L284,216 L267,231 L250,216 Z" fill="none" stroke="#7E5F1C" stroke-width="2.6" opacity=".62"/><path d="M261,212 l12,8" stroke="#6D5218" stroke-width="3.4" opacity=".5" stroke-linecap="round"/><path d="M301,201 L318,216 L301,231 L284,216 Z" fill="none" stroke="#7E5F1C" stroke-width="2.6" opacity=".62"/><path d="M295,212 l12,8" stroke="#6D5218" stroke-width="3.4" opacity=".5" stroke-linecap="round"/><path d="M335,201 L352,216 L335,231 L318,216 Z" fill="none" stroke="#7E5F1C" stroke-width="2.6" opacity=".62"/><path d="M329,212 l12,8" stroke="#6D5218" stroke-width="3.4" opacity=".5" stroke-linecap="round"/><path d="M369,201 L386,216 L369,231 L352,216 Z" fill="none" stroke="#7E5F1C" stroke-width="2.6" opacity=".62"/><path d="M363,212 l12,8" stroke="#6D5218" stroke-width="3.4" opacity=".5" stroke-linecap="round"/><path d="M403,201 L420,216 L403,231 L386,216 Z" fill="none" stroke="#7E5F1C" stroke-width="2.6" opacity=".62"/><path d="M397,212 l12,8" stroke="#6D5218" stroke-width="3.4" opacity=".5" stroke-linecap="round"/><path d="M437,201 L454,216 L437,231 L420,216 Z" fill="none" stroke="#7E5F1C" stroke-width="2.6" opacity=".62"/><path d="M431,212 l12,8" stroke="#6D5218" stroke-width="3.4" opacity=".5" stroke-linecap="round"/><path d="M471,201 L488,216 L471,231 L454,216 Z" fill="none" stroke="#7E5F1C" stroke-width="2.6" opacity=".62"/><path d="M465,212 l12,8" stroke="#6D5218" stroke-width="3.4" opacity=".5" stroke-linecap="round"/><path d="M505,201 L522,216 L505,231 L488,216 Z" fill="none" stroke="#7E5F1C" stroke-width="2.6" opacity=".62"/><path d="M499,212 l12,8" stroke="#6D5218" stroke-width="3.4" opacity=".5" stroke-linecap="round"/><path d="M539,201 L556,216 L539,231 L522,216 Z" fill="none" stroke="#7E5F1C" stroke-width="2.6" opacity=".62"/><path d="M533,212 l12,8" stroke="#6D5218" stroke-width="3.4" opacity=".5" stroke-linecap="round"/><path d="M250,231 L267,246 L250,261 L233,246 Z" fill="none" stroke="#7E5F1C" stroke-width="2.6" opacity=".62"/><path d="M244,242 l12,8" stroke="#6D5218" stroke-width="3.4" opacity=".5" stroke-linecap="round"/><path d="M284,231 L301,246 L284,261 L267,246 Z" fill="none" stroke="#7E5F1C" stroke-width="2.6" opacity=".62"/><path d="M278,242 l12,8" stroke="#6D5218" stroke-width="3.4" opacity=".5" stroke-linecap="round"/><path d="M318,231 L335,246 L318,261 L301,246 Z" fill="none" stroke="#7E5F1C" stroke-width="2.6" opacity=".62"/><path d="M312,242 l12,8" stroke="#6D5218" stroke-width="3.4" opacity=".5" stroke-linecap="round"/><path d="M352,231 L369,246 L352,261 L335,246 Z" fill="none" stroke="#7E5F1C" stroke-width="2.6" opacity=".62"/><path d="M346,242 l12,8" stroke="#6D5218" stroke-width="3.4" opacity=".5" stroke-linecap="round"/><path d="M386,231 L403,246 L386,261 L369,246 Z" fill="none" stroke="#7E5F1C" stroke-width="2.6" opacity=".62"/><path d="M380,242 l12,8" stroke="#6D5218" stroke-width="3.4" opacity=".5" stroke-linecap="round"/><path d="M420,231 L437,246 L420,261 L403,246 Z" fill="none" stroke="#7E5F1C" stroke-width="2.6" opacity=".62"/><path d="M414,242 l12,8" stroke="#6D5218" stroke-width="3.4" opacity=".5" stroke-linecap="round"/><path d="M454,231 L471,246 L454,261 L437,246 Z" fill="none" stroke="#7E5F1C" stroke-width="2.6" opacity=".62"/><path d="M448,242 l12,8" stroke="#6D5218" stroke-width="3.4" opacity=".5" stroke-linecap="round"/><path d="M488,231 L505,246 L488,261 L471,246 Z" fill="none" stroke="#7E5F1C" stroke-width="2.6" opacity=".62"/><path d="M482,242 l12,8" stroke="#6D5218" stroke-width="3.4" opacity=".5" stroke-linecap="round"/><path d="M522,231 L539,246 L522,261 L505,246 Z" fill="none" stroke="#7E5F1C" stroke-width="2.6" opacity=".62"/><path d="M516,242 l12,8" stroke="#6D5218" stroke-width="3.4" opacity=".5" stroke-linecap="round"/><path d="M267,261 L284,276 L267,291 L250,276 Z" fill="none" stroke="#7E5F1C" stroke-width="2.6" opacity=".62"/><path d="M261,272 l12,8" stroke="#6D5218" stroke-width="3.4" opacity=".5" stroke-linecap="round"/><path d="M301,261 L318,276 L301,291 L284,276 Z" fill="none" stroke="#7E5F1C" stroke-width="2.6" opacity=".62"/><path d="M295,272 l12,8" stroke="#6D5218" stroke-width="3.4" opacity=".5" stroke-linecap="round"/><path d="M335,261 L352,276 L335,291 L318,276 Z" fill="none" stroke="#7E5F1C" stroke-width="2.6" opacity=".62"/><path d="M329,272 l12,8" stroke="#6D5218" stroke-width="3.4" opacity=".5" stroke-linecap="round"/><path d="M369,261 L386,276 L369,291 L352,276 Z" fill="none" stroke="#7E5F1C" stroke-width="2.6" opacity=".62"/><path d="M363,272 l12,8" stroke="#6D5218" stroke-width="3.4" opacity=".5" stroke-linecap="round"/><path d="M403,261 L420,276 L403,291 L386,276 Z" fill="none" stroke="#7E5F1C" stroke-width="2.6" opacity=".62"/><path d="M397,272 l12,8" stroke="#6D5218" stroke-width="3.4" opacity=".5" stroke-linecap="round"/><path d="M437,261 L454,276 L437,291 L420,276 Z" fill="none" stroke="#7E5F1C" stroke-width="2.6" opacity=".62"/><path d="M431,272 l12,8" stroke="#6D5218" stroke-width="3.4" opacity=".5" stroke-linecap="round"/><path d="M471,261 L488,276 L471,291 L454,276 Z" fill="none" stroke="#7E5F1C" stroke-width="2.6" opacity=".62"/><path d="M465,272 l12,8" stroke="#6D5218" stroke-width="3.4" opacity=".5" stroke-linecap="round"/><path d="M505,261 L522,276 L505,291 L488,276 Z" fill="none" stroke="#7E5F1C" stroke-width="2.6" opacity=".62"/><path d="M499,272 l12,8" stroke="#6D5218" stroke-width="3.4" opacity=".5" stroke-linecap="round"/><path d="M539,261 L556,276 L539,291 L522,276 Z" fill="none" stroke="#7E5F1C" stroke-width="2.6" opacity=".62"/><path d="M533,272 l12,8" stroke="#6D5218" stroke-width="3.4" opacity=".5" stroke-linecap="round"/><path d="M250,291 L267,306 L250,321 L233,306 Z" fill="none" stroke="#7E5F1C" stroke-width="2.6" opacity=".62"/><path d="M244,302 l12,8" stroke="#6D5218" stroke-width="3.4" opacity=".5" stroke-linecap="round"/><path d="M284,291 L301,306 L284,321 L267,306 Z" fill="none" stroke="#7E5F1C" stroke-width="2.6" opacity=".62"/><path d="M278,302 l12,8" stroke="#6D5218" stroke-width="3.4" opacity=".5" stroke-linecap="round"/><path d="M318,291 L335,306 L318,321 L301,306 Z" fill="none" stroke="#7E5F1C" stroke-width="2.6" opacity=".62"/><path d="M312,302 l12,8" stroke="#6D5218" stroke-width="3.4" opacity=".5" stroke-linecap="round"/><path d="M352,291 L369,306 L352,321 L335,306 Z" fill="none" stroke="#7E5F1C" stroke-width="2.6" opacity=".62"/><path d="M346,302 l12,8" stroke="#6D5218" stroke-width="3.4" opacity=".5" stroke-linecap="round"/><path d="M386,291 L403,306 L386,321 L369,306 Z" fill="none" stroke="#7E5F1C" stroke-width="2.6" opacity=".62"/><path d="M380,302 l12,8" stroke="#6D5218" stroke-width="3.4" opacity=".5" stroke-linecap="round"/><path d="M420,291 L437,306 L420,321 L403,306 Z" fill="none" stroke="#7E5F1C" stroke-width="2.6" opacity=".62"/><path d="M414,302 l12,8" stroke="#6D5218" stroke-width="3.4" opacity=".5" stroke-linecap="round"/><path d="M454,291 L471,306 L454,321 L437,306 Z" fill="none" stroke="#7E5F1C" stroke-width="2.6" opacity=".62"/><path d="M448,302 l12,8" stroke="#6D5218" stroke-width="3.4" opacity=".5" stroke-linecap="round"/><path d="M488,291 L505,306 L488,321 L471,306 Z" fill="none" stroke="#7E5F1C" stroke-width="2.6" opacity=".62"/><path d="M482,302 l12,8" stroke="#6D5218" stroke-width="3.4" opacity=".5" stroke-linecap="round"/><path d="M522,291 L539,306 L522,321 L505,306 Z" fill="none" stroke="#7E5F1C" stroke-width="2.6" opacity=".62"/><path d="M516,302 l12,8" stroke="#6D5218" stroke-width="3.4" opacity=".5" stroke-linecap="round"/><path d="M267,321 L284,336 L267,351 L250,336 Z" fill="none" stroke="#7E5F1C" stroke-width="2.6" opacity=".62"/><path d="M261,332 l12,8" stroke="#6D5218" stroke-width="3.4" opacity=".5" stroke-linecap="round"/><path d="M301,321 L318,336 L301,351 L284,336 Z" fill="none" stroke="#7E5F1C" stroke-width="2.6" opacity=".62"/><path d="M295,332 l12,8" stroke="#6D5218" stroke-width="3.4" opacity=".5" stroke-linecap="round"/><path d="M335,321 L352,336 L335,351 L318,336 Z" fill="none" stroke="#7E5F1C" stroke-width="2.6" opacity=".62"/><path d="M329,332 l12,8" stroke="#6D5218" stroke-width="3.4" opacity=".5" stroke-linecap="round"/><path d="M369,321 L386,336 L369,351 L352,336 Z" fill="none" stroke="#7E5F1C" stroke-width="2.6" opacity=".62"/><path d="M363,332 l12,8" stroke="#6D5218" stroke-width="3.4" opacity=".5" stroke-linecap="round"/><path d="M403,321 L420,336 L403,351 L386,336 Z" fill="none" stroke="#7E5F1C" stroke-width="2.6" opacity=".62"/><path d="M397,332 l12,8" stroke="#6D5218" stroke-width="3.4" opacity=".5" stroke-linecap="round"/><path d="M437,321 L454,336 L437,351 L420,336 Z" fill="none" stroke="#7E5F1C" stroke-width="2.6" opacity=".62"/><path d="M431,332 l12,8" stroke="#6D5218" stroke-width="3.4" opacity=".5" stroke-linecap="round"/><path d="M471,321 L488,336 L471,351 L454,336 Z" fill="none" stroke="#7E5F1C" stroke-width="2.6" opacity=".62"/><path d="M465,332 l12,8" stroke="#6D5218" stroke-width="3.4" opacity=".5" stroke-linecap="round"/><path d="M505,321 L522,336 L505,351 L488,336 Z" fill="none" stroke="#7E5F1C" stroke-width="2.6" opacity=".62"/><path d="M499,332 l12,8" stroke="#6D5218" stroke-width="3.4" opacity=".5" stroke-linecap="round"/><path d="M539,321 L556,336 L539,351 L522,336 Z" fill="none" stroke="#7E5F1C" stroke-width="2.6" opacity=".62"/><path d="M533,332 l12,8" stroke="#6D5218" stroke-width="3.4" opacity=".5" stroke-linecap="round"/><path d="M250,351 L267,366 L250,381 L233,366 Z" fill="none" stroke="#7E5F1C" stroke-width="2.6" opacity=".62"/><path d="M244,362 l12,8" stroke="#6D5218" stroke-width="3.4" opacity=".5" stroke-linecap="round"/><path d="M284,351 L301,366 L284,381 L267,366 Z" fill="none" stroke="#7E5F1C" stroke-width="2.6" opacity=".62"/><path d="M278,362 l12,8" stroke="#6D5218" stroke-width="3.4" opacity=".5" stroke-linecap="round"/><path d="M318,351 L335,366 L318,381 L301,366 Z" fill="none" stroke="#7E5F1C" stroke-width="2.6" opacity=".62"/><path d="M312,362 l12,8" stroke="#6D5218" stroke-width="3.4" opacity=".5" stroke-linecap="round"/><path d="M352,351 L369,366 L352,381 L335,366 Z" fill="none" stroke="#7E5F1C" stroke-width="2.6" opacity=".62"/><path d="M346,362 l12,8" stroke="#6D5218" stroke-width="3.4" opacity=".5" stroke-linecap="round"/><path d="M386,351 L403,366 L386,381 L369,366 Z" fill="none" stroke="#7E5F1C" stroke-width="2.6" opacity=".62"/><path d="M380,362 l12,8" stroke="#6D5218" stroke-width="3.4" opacity=".5" stroke-linecap="round"/><path d="M420,351 L437,366 L420,381 L403,366 Z" fill="none" stroke="#7E5F1C" stroke-width="2.6" opacity=".62"/><path d="M414,362 l12,8" stroke="#6D5218" stroke-width="3.4" opacity=".5" stroke-linecap="round"/><path d="M454,351 L471,366 L454,381 L437,366 Z" fill="none" stroke="#7E5F1C" stroke-width="2.6" opacity=".62"/><path d="M448,362 l12,8" stroke="#6D5218" stroke-width="3.4" opacity=".5" stroke-linecap="round"/><path d="M488,351 L505,366 L488,381 L471,366 Z" fill="none" stroke="#7E5F1C" stroke-width="2.6" opacity=".62"/><path d="M482,362 l12,8" stroke="#6D5218" stroke-width="3.4" opacity=".5" stroke-linecap="round"/><path d="M522,351 L539,366 L522,381 L505,366 Z" fill="none" stroke="#7E5F1C" stroke-width="2.6" opacity=".62"/><path d="M516,362 l12,8" stroke="#6D5218" stroke-width="3.4" opacity=".5" stroke-linecap="round"/><path d="M267,381 L284,396 L267,411 L250,396 Z" fill="none" stroke="#7E5F1C" stroke-width="2.6" opacity=".62"/><path d="M261,392 l12,8" stroke="#6D5218" stroke-width="3.4" opacity=".5" stroke-linecap="round"/><path d="M301,381 L318,396 L301,411 L284,396 Z" fill="none" stroke="#7E5F1C" stroke-width="2.6" opacity=".62"/><path d="M295,392 l12,8" stroke="#6D5218" stroke-width="3.4" opacity=".5" stroke-linecap="round"/><path d="M335,381 L352,396 L335,411 L318,396 Z" fill="none" stroke="#7E5F1C" stroke-width="2.6" opacity=".62"/><path d="M329,392 l12,8" stroke="#6D5218" stroke-width="3.4" opacity=".5" stroke-linecap="round"/><path d="M369,381 L386,396 L369,411 L352,396 Z" fill="none" stroke="#7E5F1C" stroke-width="2.6" opacity=".62"/><path d="M363,392 l12,8" stroke="#6D5218" stroke-width="3.4" opacity=".5" stroke-linecap="round"/><path d="M403,381 L420,396 L403,411 L386,396 Z" fill="none" stroke="#7E5F1C" stroke-width="2.6" opacity=".62"/><path d="M397,392 l12,8" stroke="#6D5218" stroke-width="3.4" opacity=".5" stroke-linecap="round"/><path d="M437,381 L454,396 L437,411 L420,396 Z" fill="none" stroke="#7E5F1C" stroke-width="2.6" opacity=".62"/><path d="M431,392 l12,8" stroke="#6D5218" stroke-width="3.4" opacity=".5" stroke-linecap="round"/><path d="M471,381 L488,396 L471,411 L454,396 Z" fill="none" stroke="#7E5F1C" stroke-width="2.6" opacity=".62"/><path d="M465,392 l12,8" stroke="#6D5218" stroke-width="3.4" opacity=".5" stroke-linecap="round"/><path d="M505,381 L522,396 L505,411 L488,396 Z" fill="none" stroke="#7E5F1C" stroke-width="2.6" opacity=".62"/><path d="M499,392 l12,8" stroke="#6D5218" stroke-width="3.4" opacity=".5" stroke-linecap="round"/><path d="M539,381 L556,396 L539,411 L522,396 Z" fill="none" stroke="#7E5F1C" stroke-width="2.6" opacity=".62"/><path d="M533,392 l12,8" stroke="#6D5218" stroke-width="3.4" opacity=".5" stroke-linecap="round"/><path d="M250,411 L267,426 L250,441 L233,426 Z" fill="none" stroke="#7E5F1C" stroke-width="2.6" opacity=".62"/><path d="M244,422 l12,8" stroke="#6D5218" stroke-width="3.4" opacity=".5" stroke-linecap="round"/><path d="M284,411 L301,426 L284,441 L267,426 Z" fill="none" stroke="#7E5F1C" stroke-width="2.6" opacity=".62"/><path d="M278,422 l12,8" stroke="#6D5218" stroke-width="3.4" opacity=".5" stroke-linecap="round"/><path d="M318,411 L335,426 L318,441 L301,426 Z" fill="none" stroke="#7E5F1C" stroke-width="2.6" opacity=".62"/><path d="M312,422 l12,8" stroke="#6D5218" stroke-width="3.4" opacity=".5" stroke-linecap="round"/><path d="M352,411 L369,426 L352,441 L335,426 Z" fill="none" stroke="#7E5F1C" stroke-width="2.6" opacity=".62"/><path d="M346,422 l12,8" stroke="#6D5218" stroke-width="3.4" opacity=".5" stroke-linecap="round"/><path d="M386,411 L403,426 L386,441 L369,426 Z" fill="none" stroke="#7E5F1C" stroke-width="2.6" opacity=".62"/><path d="M380,422 l12,8" stroke="#6D5218" stroke-width="3.4" opacity=".5" stroke-linecap="round"/><path d="M420,411 L437,426 L420,441 L403,426 Z" fill="none" stroke="#7E5F1C" stroke-width="2.6" opacity=".62"/><path d="M414,422 l12,8" stroke="#6D5218" stroke-width="3.4" opacity=".5" stroke-linecap="round"/><path d="M454,411 L471,426 L454,441 L437,426 Z" fill="none" stroke="#7E5F1C" stroke-width="2.6" opacity=".62"/><path d="M448,422 l12,8" stroke="#6D5218" stroke-width="3.4" opacity=".5" stroke-linecap="round"/><path d="M488,411 L505,426 L488,441 L471,426 Z" fill="none" stroke="#7E5F1C" stroke-width="2.6" opacity=".62"/><path d="M482,422 l12,8" stroke="#6D5218" stroke-width="3.4" opacity=".5" stroke-linecap="round"/><path d="M522,411 L539,426 L522,441 L505,426 Z" fill="none" stroke="#7E5F1C" stroke-width="2.6" opacity=".62"/><path d="M516,422 l12,8" stroke="#6D5218" stroke-width="3.4" opacity=".5" stroke-linecap="round"/><path d="M267,441 L284,456 L267,471 L250,456 Z" fill="none" stroke="#7E5F1C" stroke-width="2.6" opacity=".62"/><path d="M261,452 l12,8" stroke="#6D5218" stroke-width="3.4" opacity=".5" stroke-linecap="round"/><path d="M301,441 L318,456 L301,471 L284,456 Z" fill="none" stroke="#7E5F1C" stroke-width="2.6" opacity=".62"/><path d="M295,452 l12,8" stroke="#6D5218" stroke-width="3.4" opacity=".5" stroke-linecap="round"/><path d="M335,441 L352,456 L335,471 L318,456 Z" fill="none" stroke="#7E5F1C" stroke-width="2.6" opacity=".62"/><path d="M329,452 l12,8" stroke="#6D5218" stroke-width="3.4" opacity=".5" stroke-linecap="round"/><path d="M369,441 L386,456 L369,471 L352,456 Z" fill="none" stroke="#7E5F1C" stroke-width="2.6" opacity=".62"/><path d="M363,452 l12,8" stroke="#6D5218" stroke-width="3.4" opacity=".5" stroke-linecap="round"/><path d="M403,441 L420,456 L403,471 L386,456 Z" fill="none" stroke="#7E5F1C" stroke-width="2.6" opacity=".62"/><path d="M397,452 l12,8" stroke="#6D5218" stroke-width="3.4" opacity=".5" stroke-linecap="round"/><path d="M437,441 L454,456 L437,471 L420,456 Z" fill="none" stroke="#7E5F1C" stroke-width="2.6" opacity=".62"/><path d="M431,452 l12,8" stroke="#6D5218" stroke-width="3.4" opacity=".5" stroke-linecap="round"/><path d="M471,441 L488,456 L471,471 L454,456 Z" fill="none" stroke="#7E5F1C" stroke-width="2.6" opacity=".62"/><path d="M465,452 l12,8" stroke="#6D5218" stroke-width="3.4" opacity=".5" stroke-linecap="round"/><path d="M505,441 L522,456 L505,471 L488,456 Z" fill="none" stroke="#7E5F1C" stroke-width="2.6" opacity=".62"/><path d="M499,452 l12,8" stroke="#6D5218" stroke-width="3.4" opacity=".5" stroke-linecap="round"/><path d="M539,441 L556,456 L539,471 L522,456 Z" fill="none" stroke="#7E5F1C" stroke-width="2.6" opacity=".62"/><path d="M533,452 l12,8" stroke="#6D5218" stroke-width="3.4" opacity=".5" stroke-linecap="round"/><path d="M250,471 L267,486 L250,501 L233,486 Z" fill="none" stroke="#7E5F1C" stroke-width="2.6" opacity=".62"/><path d="M244,482 l12,8" stroke="#6D5218" stroke-width="3.4" opacity=".5" stroke-linecap="round"/><path d="M284,471 L301,486 L284,501 L267,486 Z" fill="none" stroke="#7E5F1C" stroke-width="2.6" opacity=".62"/><path d="M278,482 l12,8" stroke="#6D5218" stroke-width="3.4" opacity=".5" stroke-linecap="round"/><path d="M318,471 L335,486 L318,501 L301,486 Z" fill="none" stroke="#7E5F1C" stroke-width="2.6" opacity=".62"/><path d="M312,482 l12,8" stroke="#6D5218" stroke-width="3.4" opacity=".5" stroke-linecap="round"/><path d="M352,471 L369,486 L352,501 L335,486 Z" fill="none" stroke="#7E5F1C" stroke-width="2.6" opacity=".62"/><path d="M346,482 l12,8" stroke="#6D5218" stroke-width="3.4" opacity=".5" stroke-linecap="round"/><path d="M386,471 L403,486 L386,501 L369,486 Z" fill="none" stroke="#7E5F1C" stroke-width="2.6" opacity=".62"/><path d="M380,482 l12,8" stroke="#6D5218" stroke-width="3.4" opacity=".5" stroke-linecap="round"/><path d="M420,471 L437,486 L420,501 L403,486 Z" fill="none" stroke="#7E5F1C" stroke-width="2.6" opacity=".62"/><path d="M414,482 l12,8" stroke="#6D5218" stroke-width="3.4" opacity=".5" stroke-linecap="round"/><path d="M454,471 L471,486 L454,501 L437,486 Z" fill="none" stroke="#7E5F1C" stroke-width="2.6" opacity=".62"/><path d="M448,482 l12,8" stroke="#6D5218" stroke-width="3.4" opacity=".5" stroke-linecap="round"/><path d="M488,471 L505,486 L488,501 L471,486 Z" fill="none" stroke="#7E5F1C" stroke-width="2.6" opacity=".62"/><path d="M482,482 l12,8" stroke="#6D5218" stroke-width="3.4" opacity=".5" stroke-linecap="round"/><path d="M522,471 L539,486 L522,501 L505,486 Z" fill="none" stroke="#7E5F1C" stroke-width="2.6" opacity=".62"/><path d="M516,482 l12,8" stroke="#6D5218" stroke-width="3.4" opacity=".5" stroke-linecap="round"/><ellipse cx="336" cy="286" rx="58" ry="96" fill="#fff" opacity=".16" transform="rotate(-16 336 286)"/><ellipse cx="500" cy="400" rx="52" ry="110" fill="#000" opacity=".10"/></g></svg>