<svg xmlns="http://www.w3.org/2000/svg" viewBox="0 0 800 600" width="800" height="600" role="img" aria-label="Soda 500ml"><title>Soda 500ml</title><defs><radialGradient id="soda671abc_3" cx="34%" cy="22%" r="86%"><stop offset="0" stop-color="#FFFFFF"/><stop offset=".55" stop-color="#F9ECEC"/><stop offset="1" stop-color="#EECBC8"/></radialGradient><filter id="soda671abc_1" x="-40%" y="-40%" width="180%" height="180%"><feGaussianBlur stdDeviation="14.0"/></filter><linearGradient id="soda671abc_2" x1="0" y1="0" x2="1" y2="0"><stop offset="0" stop-color="#99362F"/><stop offset=".5" stop-color="#D2726B"/><stop offset="1" stop-color="#89302A"/></linearGradient></defs><rect width="800" height="600" fill="url(#soda671abc_3)"/><ellipse cx="400" cy="494" rx="140" ry="24" fill="#22303C" opacity="0.2" filter="url(#soda671abc_1)"/><path d="M356,208 L444,208 L444,246 C444,266 486,286 486,326 L486,462 C486,482 472,492 452,492 L348,492 C328,492 314,482 314,462 L314,326 C314,286 356,266 356,246 Z" fill="url(#soda671abc_2)"/><rect x="352" y="176" width="96" height="40" rx="8" fill="#A82B1E"/><rect x="352" y="176" width="96" height="12" rx="6" fill="#C6736A"/><rect x="322.0" y="336" width="156" height="122" rx="8" fill="#FFFFFF" opacity="0.95"/><text x="400" y="399.64" font-family="Arial, Helvetica, sans-serif" font-size="24" font-weight="800" letter-spacing="2.2" fill="#761E15" text-anchor="middle">COLA</text><text x="400" y="417.64" font-family="Arial, Helvetica, sans-serif" font-size="12" font-weight="600" letter-spacing="0.5" fill="#A82B1E" text-anchor="middle">500 ml</text><rect x="326" y="330" width="16" height="146" rx="8" fill="#fff" opacity=".38"/></svg>