<svg xmlns="http://www.w3.org/2000/svg" viewBox="0 0 800 600" width="800" height="600" role="img" aria-label="Sweet potatoes"><title>Sweet potatoes</title><defs><radialGradient id="sweefc95a6_5" cx="34%" cy="22%" r="86%"><stop offset="0" stop-color="#FFFFFF"/><stop offset=".55" stop-color="#FAF3ED"/><stop offset="1" stop-color="#F0DFCD"/></radialGradient><filter id="sweefc95a6_1" x="-40%" y="-40%" width="180%" height="180%"><feGaussianBlur stdDeviation="22.0"/></filter><radialGradient id="sweefc95a6_2" cx="32%" cy="26%" r="78%"><stop offset="0" stop-color="#DBBC9B"/><stop offset=".46" stop-color="#BD8346"/><stop offset="1" stop-color="#714F2A"/></radialGradient><radialGradient id="sweefc95a6_3" cx="32%" cy="26%" r="78%"><stop offset="0" stop-color="#E5C7A8"/><stop offset=".46" stop-color="#CE975D"/><stop offset="1" stop-color="#7C5B38"/></radialGradient><radialGradient id="sweefc95a6_4" cx="32%" cy="26%" r="78%"><stop offset="0" stop-color="#E2C09E"/><stop offset=".46" stop-color="#C98B4B"/><stop offset="1" stop-color="#79532D"/></radialGradient></defs><rect width="800" height="600" fill="url(#sweefc95a6_5)"/><ellipse cx="400" cy="470" rx="220" ry="34" fill="#22303C" opacity="0.2" filter="url(#sweefc95a6_1)"/><g transform="rotate(-16 300 400)"><ellipse cx="300" cy="400" rx="140" ry="62" fill="url(#sweefc95a6_2)"/><ellipse cx="296.2338838353753" cy="416.7827483667061" rx="9.8" ry="7.0" fill="#7D562E" opacity=".7"/><ellipse cx="249.553390648216" cy="409.6310813026503" rx="9.8" ry="7.0" fill="#7D562E" opacity=".7"/><ellipse cx="348.1179805845022" cy="379.45719256903976" rx="9.8" ry="7.0" fill="#7D562E" opacity=".7"/><ellipse cx="310.9210134483874" cy="422.6505061322823" rx="9.8" ry="7.0" fill="#7D562E" opacity=".7"/><ellipse cx="255.2" cy="375.2" rx="36.4" ry="12.4" fill="#fff" opacity=".26"/></g><g transform="rotate(12 500 392)"><ellipse cx="500" cy="392" rx="132" ry="58" fill="url(#sweefc95a6_3)"/><ellipse cx="491.7135326862335" cy="377.96806453634053" rx="9.24" ry="6.6000000000000005" fill="#88643D" opacity=".7"/><ellipse cx="511.37013852223754" cy="418.8257271675393" rx="9.24" ry="6.6000000000000005" fill="#88643D" opacity=".7"/><ellipse cx="499.06830414384604" cy="403.8774910578504" rx="9.24" ry="6.6000000000000005" fill="#88643D" opacity=".7"/><ellipse cx="437.84495367482305" cy="375.5169107755646" rx="9.24" ry="6.6000000000000005" fill="#88643D" opacity=".7"/><ellipse cx="457.76" cy="368.8" rx="34.32" ry="11.600000000000001" fill="#fff" opacity=".26"/></g><g transform="rotate(-4 400 452)"><ellipse cx="400" cy="452" rx="168" ry="66" fill="url(#sweefc95a6_4)"/><ellipse cx="383.4265135079622" cy="468.19974399823695" rx="11.760000000000002" ry="8.4" fill="#855C31" opacity=".7"/><ellipse cx="321.47810200601816" cy="436.79921354632825" rx="11.760000000000002" ry="8.4" fill="#855C31" opacity=".7"/><ellipse cx="339.88683384656906" cy="434.8996812188998" rx="11.760000000000002" ry="8.4" fill="#855C31" opacity=".7"/><ellipse cx="396.6819386705756" cy="456.37493334617466" rx="11.760000000000002" ry="8.4" fill="#855C31" opacity=".7"/><ellipse cx="459.46939401328564" cy="464.7966923164204" rx="11.760000000000002" ry="8.4" fill="#855C31" opacity=".7"/><ellipse cx="346.24" cy="425.6" rx="43.68" ry="13.200000000000001" fill="#fff" opacity=".26"/></g></svg>