<svg xmlns="http://www.w3.org/2000/svg" viewBox="0 0 800 600" width="800" height="600" role="img" aria-label="Tea leaves 250g"><title>Tea leaves 250g</title><defs><radialGradient id="tealcf968e_6" cx="34%" cy="22%" r="86%"><stop offset="0" stop-color="#FFFFFF"/><stop offset=".55" stop-color="#F3F1EC"/><stop offset="1" stop-color="#DED7CA"/></radialGradient><filter id="tealcf968e_1" x="-40%" y="-40%" width="180%" height="180%"><feGaussianBlur stdDeviation="16.8"/></filter><linearGradient id="tealcf968e_2" x1="0" y1="0" x2="1" y2="0"><stop offset="0" stop-color="#745F37"/><stop offset=".5" stop-color="#967F54"/><stop offset="1" stop-color="#665430"/></linearGradient><linearGradient id="tealcf968e_3" x1="0" y1="0" x2="0" y2="1"><stop offset="0" stop-color="#AD9C7A"/><stop offset="1" stop-color="#988258"/></linearGradient><linearGradient id="tealcf968e_4" x1="0" y1="0" x2="0" y2="1"><stop offset="0" stop-color="#8AB285"/><stop offset="1" stop-color="#3A6634"/></linearGradient><linearGradient id="tealcf968e_5" x1="0" y1="0" x2="0" y2="1"><stop offset="0" stop-color="#8AB285"/><stop offset="1" stop-color="#3A6634"/></linearGradient></defs><rect width="800" height="600" fill="url(#tealcf968e_6)"/><ellipse cx="400" cy="470" rx="168" ry="26" fill="#22303C" opacity="0.2" filter="url(#tealcf968e_1)"/><path d="M284,226 L516,226 Q526,226 526,236 L526,258 L274,258 L274,236 Q274,226 284,226 Z" fill="url(#tealcf968e_3)"/><rect x="274" y="258" width="252" height="214" rx="10" fill="url(#tealcf968e_2)"/><rect x="274" y="258" width="40.32" height="214" rx="10" fill="#fff" opacity=".14"/><rect x="485.67999999999995" y="258" width="40.32" height="214" rx="10" fill="#000" opacity=".10"/><rect x="300.0" y="296" width="200" height="132" rx="8" fill="#FFF8E8" opacity="0.95"/><text x="400" y="328.82" font-family="Arial, Helvetica, sans-serif" font-size="13" font-weight="700" letter-spacing="0.5" fill="#8A6A22" text-anchor="middle">FORT PORTAL</text><text x="400" y="378.82" font-family="Arial, Helvetica, sans-serif" font-size="44" font-weight="800" letter-spacing="2.2" fill="#2F5A34" text-anchor="middle">TEA</text><rect x="341.52" y="391.32" width="116.96000000000001" height="3" fill="#4E8A46"/><text x="400" y="414.32" font-family="Arial, Helvetica, sans-serif" font-size="11" font-weight="600" letter-spacing="0.5" fill="#7A8A5E" text-anchor="middle">LOOSE BLACK · 250g</text><g transform="rotate(-34 344 300)"><path d="M344,300 Q326,274.0 344,248 Q362,274.0 344,300 Z" fill="url(#tealcf968e_4)"/><path d="M344,300 L344,248" stroke="#95B990" stroke-width="1.8" opacity=".55" fill="none"/></g><g transform="rotate(34 456 300)"><path d="M456,300 Q438,274.0 456,248 Q474,274.0 456,300 Z" fill="url(#tealcf968e_5)"/><path d="M456,300 L456,248" stroke="#95B990" stroke-width="1.8" opacity=".55" fill="none"/></g></svg>