<svg xmlns="http://www.w3.org/2000/svg" viewBox="0 0 1200 480" width="1200" height="480" role="img" aria-label="Drinks"><title>Drinks</title><defs><radialGradient id="aisl679170_6" cx="34%" cy="22%" r="86%"><stop offset="0" stop-color="#FFFFFF"/><stop offset=".55" stop-color="#F2F4F6"/><stop offset="1" stop-color="#DAE0E7"/></radialGradient><filter id="aisl679170_1" x="-40%" y="-40%" width="180%" height="180%"><feGaussianBlur stdDeviation="17.2"/></filter><linearGradient id="aisl679170_2" x1="0" y1="0" x2="1" y2="0"><stop offset="0" stop-color="#5F402A"/><stop offset=".5" stop-color="#95755E"/><stop offset="1" stop-color="#553926"/></linearGradient><filter id="aisl679170_3" x="-40%" y="-40%" width="180%" height="180%"><feGaussianBlur stdDeviation="16.5"/></filter><linearGradient id="aisl679170_4" x1="0" y1="0" x2="1" y2="0"><stop offset="0" stop-color="#8EA5AD"/><stop offset=".5" stop-color="#FFFFFF"/><stop offset="1" stop-color="#8499A1"/></linearGradient><filter id="aisl679170_5" x="-40%" y="-40%" width="180%" height="180%"><feGaussianBlur stdDeviation="21.0"/></filter></defs><rect width="1200" height="480" fill="#EFF2F5"/><circle cx="980" cy="120" r="230" fill="#7A8FA8" opacity=".12"/><circle cx="180" cy="430" r="200" fill="#7A8FA8" opacity=".10"/><g transform="translate(-66,-52) scale(.62)"><ellipse cx="400" cy="486" rx="172" ry="26" fill="#22303C" opacity="0.2" filter="url(#aisl679170_1)"/><path d="M275.0,222 Q400,189.0 525.0,222 L525.0,460 Q400,493.0 275.0,460 Z" fill="url(#aisl679170_2)"/><rect x="265.0" y="199.1" width="270" height="26" rx="6" fill="#4C3321"/><rect x="279.0" y="205.1" width="3" height="14" rx="1.5" fill="#A78D7A" opacity=".40"/><rect x="313.57142857142856" y="205.1" width="3" height="14" rx="1.5" fill="#A78D7A" opacity=".40"/><rect x="348.1428571428571" y="205.1" width="3" height="14" rx="1.5" fill="#A78D7A" opacity=".40"/><rect x="382.7142857142857" y="205.1" width="3" height="14" rx="1.5" fill="#A78D7A" opacity=".40"/><rect x="417.2857142857143" y="205.1" width="3" height="14" rx="1.5" fill="#A78D7A" opacity=".40"/><rect x="451.8571428571429" y="205.1" width="3" height="14" rx="1.5" fill="#A78D7A" opacity=".40"/><rect x="486.42857142857144" y="205.1" width="3" height="14" rx="1.5" fill="#A78D7A" opacity=".40"/><rect x="265.0" y="456.9" width="270" height="26" rx="6" fill="#4C3321"/><rect x="279.0" y="462.9" width="3" height="14" rx="1.5" fill="#A78D7A" opacity=".40"/><rect x="313.57142857142856" y="462.9" width="3" height="14" rx="1.5" fill="#A78D7A" opacity=".40"/><rect x="348.1428571428571" y="462.9" width="3" height="14" rx="1.5" fill="#A78D7A" opacity=".40"/><rect x="382.7142857142857" y="462.9" width="3" height="14" rx="1.5" fill="#A78D7A" opacity=".40"/><rect x="417.2857142857143" y="462.9" width="3" height="14" rx="1.5" fill="#A78D7A" opacity=".40"/><rect x="451.8571428571429" y="462.9" width="3" height="14" rx="1.5" fill="#A78D7A" opacity=".40"/><rect x="486.42857142857144" y="462.9" width="3" height="14" rx="1.5" fill="#A78D7A" opacity=".40"/><rect x="290.0" y="226.4" width="32.5" height="229.2" rx="15.0" fill="#fff" opacity=".26"/><circle cx="400" cy="252" r="19" fill="#442E1E"/><circle cx="400" cy="252" r="9" fill="#A28672"/><rect x="302.0" y="292" width="196" height="132" rx="8" fill="#F4EDE2" opacity="0.96"/><text x="400" y="331.41" font-family="Arial, Helvetica, sans-serif" font-size="15" font-weight="700" letter-spacing="0.5" fill="#8A6A46" text-anchor="middle">MT ELGON</text><text x="400" y="369.41" font-family="Arial, Helvetica, sans-serif" font-size="32" font-weight="800" letter-spacing="2.2" fill="#4A2E1C" text-anchor="middle">COFFEE</text><rect x="342.88" y="381.91" width="114.24000000000001" height="3" fill="#8A6A46"/><text x="400" y="405.91" font-family="Arial, Helvetica, sans-serif" font-size="12" font-weight="600" letter-spacing="0.5" fill="#8A6A46" text-anchor="middle">ARABICA · 250g</text><g transform="rotate(-20 252 484)"><ellipse cx="252" cy="484" rx="15" ry="11" fill="#64432C"/><path d="M239,484 q13,-7 26,0 q-13,7 -26,0 Z" fill="#422C1D"/></g><g transform="rotate(14 286 494)"><ellipse cx="286" cy="494" rx="15" ry="11" fill="#64432C"/><path d="M273,494 q13,-7 26,0 q-13,7 -26,0 Z" fill="#422C1D"/></g><g transform="rotate(24 516 486)"><ellipse cx="516" cy="486" rx="15" ry="11" fill="#64432C"/><path d="M503,486 q13,-7 26,0 q-13,7 -26,0 Z" fill="#422C1D"/></g><g transform="rotate(-12 548 496)"><ellipse cx="548" cy="496" rx="15" ry="11" fill="#64432C"/><path d="M535,496 q13,-7 26,0 q-13,7 -26,0 Z" fill="#422C1D"/></g></g><g transform="translate(314,-52) scale(.62)"><ellipse cx="400" cy="496" rx="165" ry="24" fill="#22303C" opacity="0.2" filter="url(#aisl679170_3)"/><path d="M330,214 L470,214 C486,238 512,258 512,292 L512,458 C512,480 498,492 476,492 L324,492 C302,492 288,480 288,458 L288,292 C288,258 314,238 330,214 Z" fill="url(#aisl679170_4)"/><rect x="362" y="176" width="76" height="46" rx="6" fill="#95ACB5" opacity=".9"/><rect x="352" y="158" width="96" height="30" rx="8" fill="#1E6FB8"/><rect x="352" y="158" width="96" height="10" rx="5" fill="#4C97D8"/><path d="M470,236 q60,10 60,60 q0,50 -60,58" fill="none" stroke="#879DA5" stroke-width="20" stroke-linecap="round" opacity=".85"/><rect x="296" y="330" width="208" height="9" rx="4.5" fill="#8499A1" opacity=".35"/><rect x="296" y="364" width="208" height="9" rx="4.5" fill="#8499A1" opacity=".35"/><rect x="296" y="398" width="208" height="9" rx="4.5" fill="#8499A1" opacity=".35"/><rect x="296" y="432" width="208" height="9" rx="4.5" fill="#8499A1" opacity=".35"/><rect x="316.0" y="288" width="168" height="34" rx="5" fill="#1E6FB8" opacity="0.95"/><text x="400" y="311.37" font-family="Arial, Helvetica, sans-serif" font-size="13" font-weight="700" letter-spacing="0.5" fill="#FFFFFF" text-anchor="middle">PURIFIED WATER</text><text x="400" y="470" font-family="Arial, Helvetica, sans-serif" font-size="15" font-weight="700" letter-spacing="0.5" fill="#2E7FC4" text-anchor="2.4">5 LITRES</text><rect x="304" y="256" width="22" height="216" rx="11" fill="#fff" opacity=".55"/></g><g transform="translate(684,-52) scale(.62)"><ellipse cx="400" cy="492" rx="210" ry="28" fill="#22303C" opacity="0.2" filter="url(#aisl679170_5)"/><rect x="208" y="266" width="36" height="86" rx="10" fill="#D3746B" opacity=".9"/><path d="M208,290 q18,-30 36,0 Z" fill="#DC928A" opacity=".8"/><rect x="216" y="248" width="20" height="30" rx="5" fill="#CB5D51"/><rect x="213" y="240" width="26" height="16" rx="4" fill="#C0392B"/><rect x="212" y="300" width="28" height="34" rx="4" fill="#FFFFFF" opacity=".85"/><rect x="278" y="266" width="36" height="86" rx="10" fill="#EEA564" opacity=".9"/><path d="M278,290 q18,-30 36,0 Z" fill="#F1B885" opacity=".8"/><rect x="286" y="248" width="20" height="30" rx="5" fill="#EA954A"/><rect x="283" y="240" width="26" height="16" rx="4" fill="#E67E22"/><rect x="282" y="300" width="28" height="34" rx="4" fill="#FFFFFF" opacity=".85"/><rect x="348" y="266" width="36" height="86" rx="10" fill="#6DA470" opacity=".9"/><path d="M348,290 q18,-30 36,0 Z" fill="#8CB88E" opacity=".8"/><rect x="356" y="248" width="20" height="30" rx="5" fill="#549457"/><rect x="353" y="240" width="26" height="16" rx="4" fill="#2E7D32"/><rect x="352" y="300" width="28" height="34" rx="4" fill="#FFFFFF" opacity=".85"/><rect x="418" y="266" width="36" height="86" rx="10" fill="#B07CC6" opacity=".9"/><path d="M418,290 q18,-30 36,0 Z" fill="#C198D2" opacity=".8"/><rect x="426" y="248" width="20" height="30" rx="5" fill="#A266BC"/><rect x="423" y="240" width="26" height="16" rx="4" fill="#8E44AD"/><rect x="422" y="300" width="28" height="34" rx="4" fill="#FFFFFF" opacity=".85"/><rect x="488" y="266" width="36" height="86" rx="10" fill="#5F98C2" opacity=".9"/><path d="M488,290 q18,-30 36,0 Z" fill="#82AECF" opacity=".8"/><rect x="496" y="248" width="20" height="30" rx="5" fill="#4486B8"/><rect x="493" y="240" width="26" height="16" rx="4" fill="#1B6CA8"/><rect x="492" y="300" width="28" height="34" rx="4" fill="#FFFFFF" opacity=".85"/><rect x="558" y="266" width="36" height="86" rx="10" fill="#D3746B" opacity=".9"/><path d="M558,290 q18,-30 36,0 Z" fill="#DC928A" opacity=".8"/><rect x="566" y="248" width="20" height="30" rx="5" fill="#CB5D51"/><rect x="563" y="240" width="26" height="16" rx="4" fill="#C0392B"/><rect x="562" y="300" width="28" height="34" rx="4" fill="#FFFFFF" opacity=".85"/><rect x="196" y="330" width="408" height="158" rx="12" fill="#7D3030"/><rect x="196" y="330" width="408" height="26" rx="10" fill="#9F6666"/><rect x="261" y="356" width="6" height="132" fill="#5C2424" opacity=".7"/><rect x="329" y="356" width="6" height="132" fill="#5C2424" opacity=".7"/><rect x="397" y="356" width="6" height="132" fill="#5C2424" opacity=".7"/><rect x="465" y="356" width="6" height="132" fill="#5C2424" opacity=".7"/><rect x="533" y="356" width="6" height="132" fill="#5C2424" opacity=".7"/><rect x="210" y="376" width="380" height="8" rx="4" fill="#582222" opacity=".5"/><rect x="312.0" y="396" width="176" height="60" rx="6" fill="#FFFFFF" opacity="0.94"/><text x="400" y="425.24" font-family="Arial, Helvetica, sans-serif" font-size="15" font-weight="800" letter-spacing="0.5" fill="#451A1A" text-anchor="middle">CRATE OF 24</text><text x="400" y="441.24" font-family="Arial, Helvetica, sans-serif" font-size="11" font-weight="600" letter-spacing="0.5" fill="#5E2424" text-anchor="middle">300 ml mixed</text></g><rect x="0" y="0" width="1200" height="480" fill="none"/></svg>