<svg xmlns="http://www.w3.org/2000/svg" viewBox="0 0 1200 480" width="1200" height="480" role="img" aria-label="Fresh produce"><title>Fresh produce</title><defs><radialGradient id="aislddb414_30" cx="34%" cy="22%" r="86%"><stop offset="0" stop-color="#FFFFFF"/><stop offset=".55" stop-color="#F4F6EE"/><stop offset="1" stop-color="#E0E7D1"/></radialGradient><filter id="aislddb414_1" x="-40%" y="-40%" width="180%" height="180%"><feGaussianBlur stdDeviation="20.5"/></filter><radialGradient id="aislddb414_2" cx="32%" cy="26%" r="78%"><stop offset="0" stop-color="#E6B1AD"/><stop offset=".46" stop-color="#C4453C"/><stop offset="1" stop-color="#6E2722"/></radialGradient><radialGradient id="aislddb414_3" cx="32%" cy="26%" r="78%"><stop offset="0" stop-color="#E6B1AD"/><stop offset=".46" stop-color="#C4453C"/><stop offset="1" stop-color="#6E2722"/></radialGradient><radialGradient id="aislddb414_4" cx="32%" cy="26%" r="78%"><stop offset="0" stop-color="#E6B1AD"/><stop offset=".46" stop-color="#C4453C"/><stop offset="1" stop-color="#6E2722"/></radialGradient><filter id="aislddb414_5" x="-40%" y="-40%" width="180%" height="180%"><feGaussianBlur stdDeviation="21.5"/></filter><linearGradient id="aislddb414_6" x1="0" y1="0" x2="1" y2="0"><stop offset="0" stop-color="#5E6F3B"/><stop offset=".5" stop-color="#A8BB7E"/><stop offset="1" stop-color="#64763F"/></linearGradient><linearGradient id="aislddb414_7" x1="0" y1="0" x2="1" y2="0"><stop offset="0" stop-color="#60723D"/><stop offset=".5" stop-color="#AABE80"/><stop offset="1" stop-color="#667840"/></linearGradient><linearGradient id="aislddb414_8" x1="0" y1="0" x2="1" y2="0"><stop offset="0" stop-color="#63743E"/><stop offset=".5" stop-color="#ADC181"/><stop offset="1" stop-color="#697B42"/></linearGradient><linearGradient id="aislddb414_9" x1="0" y1="0" x2="1" y2="0"><stop offset="0" stop-color="#5E6F3B"/><stop offset=".5" stop-color="#A8BB7E"/><stop offset="1" stop-color="#64763F"/></linearGradient><linearGradient id="aislddb414_10" x1="0" y1="0" x2="1" y2="0"><stop offset="0" stop-color="#60723D"/><stop offset=".5" stop-color="#AABE80"/><stop offset="1" stop-color="#667840"/></linearGradient><linearGradient id="aislddb414_11" x1="0" y1="0" x2="1" y2="0"><stop offset="0" stop-color="#63743E"/><stop offset=".5" stop-color="#ADC181"/><stop offset="1" stop-color="#697B42"/></linearGradient><linearGradient id="aislddb414_12" x1="0" y1="0" x2="1" y2="0"><stop offset="0" stop-color="#5E6F3B"/><stop offset=".5" stop-color="#A8BB7E"/><stop offset="1" stop-color="#64763F"/></linearGradient><linearGradient id="aislddb414_13" x1="0" y1="0" x2="0" y2="1"><stop offset="0" stop-color="#9E9170"/><stop offset="1" stop-color="#5E512F"/></linearGradient><filter id="aislddb414_14" x="-40%" y="-40%" width="180%" height="180%"><feGaussianBlur stdDeviation="20.0"/></filter><linearGradient id="aislddb414_15" x1="0" y1="0" x2="1" y2="0"><stop offset="0" stop-color="#985A25"/><stop offset=".5" stop-color="#D79257"/><stop offset="1" stop-color="#905523"/></linearGradient><linearGradient id="aislddb414_16" x1="0" y1="0" x2="0" y2="1"><stop offset="0" stop-color="#8BB284"/><stop offset="1" stop-color="#3A6632"/></linearGradient><linearGradient id="aislddb414_17" x1="0" y1="0" x2="0" y2="1"><stop offset="0" stop-color="#8BB284"/><stop offset="1" stop-color="#3A6632"/></linearGradient><linearGradient id="aislddb414_18" x1="0" y1="0" x2="0" y2="1"><stop offset="0" stop-color="#8BB284"/><stop offset="1" stop-color="#3A6632"/></linearGradient><linearGradient id="aislddb414_19" x1="0" y1="0" x2="0" y2="1"><stop offset="0" stop-color="#8BB284"/><stop offset="1" stop-color="#3A6632"/></linearGradient><linearGradient id="aislddb414_20" x1="0" y1="0" x2="1" y2="0"><stop offset="0" stop-color="#9B5C24"/><stop offset=".5" stop-color="#DA9456"/><stop offset="1" stop-color="#935822"/></linearGradient><linearGradient id="aislddb414_21" x1="0" y1="0" x2="0" y2="1"><stop offset="0" stop-color="#8BB284"/><stop offset="1" stop-color="#3A6632"/></linearGradient><linearGradient id="aislddb414_22" x1="0" y1="0" x2="0" y2="1"><stop offset="0" stop-color="#8BB284"/><stop offset="1" stop-color="#3A6632"/></linearGradient><linearGradient id="aislddb414_23" x1="0" y1="0" x2="0" y2="1"><stop offset="0" stop-color="#8BB284"/><stop offset="1" stop-color="#3A6632"/></linearGradient><linearGradient id="aislddb414_24" x1="0" y1="0" x2="0" y2="1"><stop offset="0" stop-color="#8BB284"/><stop offset="1" stop-color="#3A6632"/></linearGradient><linearGradient id="aislddb414_25" x1="0" y1="0" x2="1" y2="0"><stop offset="0" stop-color="#985A25"/><stop offset=".5" stop-color="#D79257"/><stop offset="1" stop-color="#905523"/></linearGradient><linearGradient id="aislddb414_26" x1="0" y1="0" x2="0" y2="1"><stop offset="0" stop-color="#8BB284"/><stop offset="1" stop-color="#3A6632"/></linearGradient><linearGradient id="aislddb414_27" x1="0" y1="0" x2="0" y2="1"><stop offset="0" stop-color="#8BB284"/><stop offset="1" stop-color="#3A6632"/></linearGradient><linearGradient id="aislddb414_28" x1="0" y1="0" x2="0" y2="1"><stop offset="0" stop-color="#8BB284"/><stop offset="1" stop-color="#3A6632"/></linearGradient><linearGradient id="aislddb414_29" x1="0" y1="0" x2="0" y2="1"><stop offset="0" stop-color="#8BB284"/><stop offset="1" stop-color="#3A6632"/></linearGradient></defs><rect width="1200" height="480" fill="#F2F5EB"/><circle cx="980" cy="120" r="230" fill="#8FA85A" opacity=".12"/><circle cx="180" cy="430" r="200" fill="#8FA85A" opacity=".10"/><g transform="translate(-66,-52) scale(.62)"><ellipse cx="400" cy="476" rx="205" ry="30" fill="#22303C" opacity="0.2" filter="url(#aislddb414_1)"/><g><ellipse cx="288" cy="400" rx="104" ry="93.60000000000001" fill="url(#aislddb414_2)"/><ellipse cx="252.64" cy="362.56" rx="27.04" ry="18.3872" fill="#fff" opacity=".34" transform="rotate(-24 252.64 362.56)"/></g><g transform="rotate(0 288 314.72)"><path d="M288,314.72 q-8,-26 0,-40 q8,14 0,40 Z" fill="#3E7A3A"/></g><g transform="rotate(72 288 314.72)"><path d="M288,314.72 q-8,-26 0,-40 q8,14 0,40 Z" fill="#3E7A3A"/></g><g transform="rotate(144 288 314.72)"><path d="M288,314.72 q-8,-26 0,-40 q8,14 0,40 Z" fill="#3E7A3A"/></g><g transform="rotate(216 288 314.72)"><path d="M288,314.72 q-8,-26 0,-40 q8,14 0,40 Z" fill="#3E7A3A"/></g><g transform="rotate(288 288 314.72)"><path d="M288,314.72 q-8,-26 0,-40 q8,14 0,40 Z" fill="#3E7A3A"/></g><circle cx="288" cy="312.64" r="10.4" fill="#2F6330"/><g><ellipse cx="512" cy="394" rx="96" ry="86.4" fill="url(#aislddb414_3)"/><ellipse cx="479.36" cy="359.44" rx="24.96" ry="16.972800000000003" fill="#fff" opacity=".34" transform="rotate(-24 479.36 359.44)"/></g><g transform="rotate(0 512 315.28)"><path d="M512,315.28 q-8,-26 0,-40 q8,14 0,40 Z" fill="#3E7A3A"/></g><g transform="rotate(72 512 315.28)"><path d="M512,315.28 q-8,-26 0,-40 q8,14 0,40 Z" fill="#3E7A3A"/></g><g transform="rotate(144 512 315.28)"><path d="M512,315.28 q-8,-26 0,-40 q8,14 0,40 Z" fill="#3E7A3A"/></g><g transform="rotate(216 512 315.28)"><path d="M512,315.28 q-8,-26 0,-40 q8,14 0,40 Z" fill="#3E7A3A"/></g><g transform="rotate(288 512 315.28)"><path d="M512,315.28 q-8,-26 0,-40 q8,14 0,40 Z" fill="#3E7A3A"/></g><circle cx="512" cy="313.36" r="9.600000000000001" fill="#2F6330"/><g><ellipse cx="400" cy="442" rx="126" ry="113.4" fill="url(#aislddb414_4)"/><ellipse cx="357.15999999999997" cy="396.64" rx="32.76" ry="22.2768" fill="#fff" opacity=".34" transform="rotate(-24 357.15999999999997 396.64)"/></g><g transform="rotate(0 400 338.68)"><path d="M400,338.68 q-8,-26 0,-40 q8,14 0,40 Z" fill="#3E7A3A"/></g><g transform="rotate(72 400 338.68)"><path d="M400,338.68 q-8,-26 0,-40 q8,14 0,40 Z" fill="#3E7A3A"/></g><g transform="rotate(144 400 338.68)"><path d="M400,338.68 q-8,-26 0,-40 q8,14 0,40 Z" fill="#3E7A3A"/></g><g transform="rotate(216 400 338.68)"><path d="M400,338.68 q-8,-26 0,-40 q8,14 0,40 Z" fill="#3E7A3A"/></g><g transform="rotate(288 400 338.68)"><path d="M400,338.68 q-8,-26 0,-40 q8,14 0,40 Z" fill="#3E7A3A"/></g><circle cx="400" cy="336.16" r="12.600000000000001" fill="#2F6330"/></g><g transform="translate(314,-52) scale(.62)"><ellipse cx="400" cy="486" rx="215" ry="32" fill="#22303C" opacity="0.2" filter="url(#aislddb414_5)"/><g transform="rotate(-46 250 372) translate(250 372) scale(1.0)"><path d="M0,64 C-52,20 -60,-70 -22,-130 C-14,-147 2,-151 10,-139 C24,-118 22,-40 34,10 C42,44 30,72 12,76 C4,78 -2,74 0,64 Z" fill="url(#aislddb414_6)"/><path d="M-16,52 C-44,10 -46,-58 -18,-118" stroke="#C3D0A6" stroke-width="8" fill="none" opacity=".45" stroke-linecap="round"/><path d="M-22,-130 C-14,-147 2,-151 10,-139 L6,-126 C0,-134 -12,-130 -22,-130 Z" fill="#4A572F"/></g><g transform="rotate(-30 292 404) translate(292 404) scale(1.08)"><path d="M0,64 C-52,20 -60,-70 -22,-141 C-14,-159 2,-163 10,-150 C24,-127 22,-40 34,10 C42,44 30,72 12,76 C4,78 -2,74 0,64 Z" fill="url(#aislddb414_7)"/><path d="M-16,52 C-44,10 -46,-58 -18,-127" stroke="#C4D2A7" stroke-width="8" fill="none" opacity=".45" stroke-linecap="round"/><path d="M-22,-141 C-14,-159 2,-163 10,-150 L6,-136 C0,-145 -12,-141 -22,-141 Z" fill="#4C5930"/></g><g transform="rotate(-14 338 426) translate(338 426) scale(1.14)"><path d="M0,64 C-52,20 -60,-70 -22,-148 C-14,-168 2,-172 10,-158 C24,-134 22,-40 34,10 C42,44 30,72 12,76 C4,78 -2,74 0,64 Z" fill="url(#aislddb414_8)"/><path d="M-16,52 C-44,10 -46,-58 -18,-134" stroke="#C6D4A8" stroke-width="8" fill="none" opacity=".45" stroke-linecap="round"/><path d="M-22,-148 C-14,-168 2,-172 10,-158 L6,-144 C0,-153 -12,-148 -22,-148 Z" fill="#4E5C31"/></g><g transform="rotate(2 400 434) translate(400 434) scale(1.16)"><path d="M0,64 C-52,20 -60,-70 -22,-151 C-14,-171 2,-175 10,-161 C24,-136 22,-40 34,10 C42,44 30,72 12,76 C4,78 -2,74 0,64 Z" fill="url(#aislddb414_9)"/><path d="M-16,52 C-44,10 -46,-58 -18,-136" stroke="#C3D0A6" stroke-width="8" fill="none" opacity=".45" stroke-linecap="round"/><path d="M-22,-151 C-14,-171 2,-175 10,-161 L6,-146 C0,-156 -12,-151 -22,-151 Z" fill="#4A572F"/></g><g transform="rotate(18 462 426) translate(462 426) scale(1.14)"><path d="M0,64 C-52,20 -60,-70 -22,-148 C-14,-168 2,-172 10,-158 C24,-134 22,-40 34,10 C42,44 30,72 12,76 C4,78 -2,74 0,64 Z" fill="url(#aislddb414_10)"/><path d="M-16,52 C-44,10 -46,-58 -18,-134" stroke="#C4D2A7" stroke-width="8" fill="none" opacity=".45" stroke-linecap="round"/><path d="M-22,-148 C-14,-168 2,-172 10,-158 L6,-144 C0,-153 -12,-148 -22,-148 Z" fill="#4C5930"/></g><g transform="rotate(34 508 404) translate(508 404) scale(1.08)"><path d="M0,64 C-52,20 -60,-70 -22,-141 C-14,-159 2,-163 10,-150 C24,-127 22,-40 34,10 C42,44 30,72 12,76 C4,78 -2,74 0,64 Z" fill="url(#aislddb414_11)"/><path d="M-16,52 C-44,10 -46,-58 -18,-127" stroke="#C6D4A8" stroke-width="8" fill="none" opacity=".45" stroke-linecap="round"/><path d="M-22,-141 C-14,-159 2,-163 10,-150 L6,-136 C0,-145 -12,-141 -22,-141 Z" fill="#4E5C31"/></g><g transform="rotate(50 550 372) translate(550 372) scale(1.0)"><path d="M0,64 C-52,20 -60,-70 -22,-130 C-14,-147 2,-151 10,-139 C24,-118 22,-40 34,10 C42,44 30,72 12,76 C4,78 -2,74 0,64 Z" fill="url(#aislddb414_12)"/><path d="M-16,52 C-44,10 -46,-58 -18,-118" stroke="#C3D0A6" stroke-width="8" fill="none" opacity=".45" stroke-linecap="round"/><path d="M-22,-130 C-14,-147 2,-151 10,-139 L6,-126 C0,-134 -12,-130 -22,-130 Z" fill="#4A572F"/></g><path d="M352,430 Q400,414 448,430 L436,506 Q400,524 364,506 Z" fill="url(#aislddb414_13)"/><ellipse cx="400" cy="430" rx="48" ry="15" fill="#B8AA86"/><ellipse cx="400" cy="430" rx="30" ry="9" fill="#7E6D43" opacity=".7"/></g><g transform="translate(684,-52) scale(.62)"><ellipse cx="400" cy="486" rx="200" ry="28" fill="#22303C" opacity="0.2" filter="url(#aislddb414_14)"/><g transform="rotate(-22 292 360)"><path d="M246,250 Q292,232 338,250 L304,476 Q292,492 280,476 Z" fill="url(#aislddb414_15)"/><path d="M252,280 q40,12 80,0" stroke="#905523" stroke-width="2.6" fill="none" opacity=".45"/><path d="M257,318 q40,12 70,0" stroke="#905523" stroke-width="2.6" fill="none" opacity=".45"/><path d="M262,356 q40,12 60,0" stroke="#905523" stroke-width="2.6" fill="none" opacity=".45"/><path d="M267,394 q40,12 50,0" stroke="#905523" stroke-width="2.6" fill="none" opacity=".45"/><path d="M272,432 q40,12 40,0" stroke="#905523" stroke-width="2.6" fill="none" opacity=".45"/><g transform="rotate(-40 292 248)"><path d="M292,248 Q266,193.0 292,138 Q318,193.0 292,248 Z" fill="url(#aislddb414_16)"/><path d="M292,248 L292,138" stroke="#95B98F" stroke-width="2.6" opacity=".55" fill="none"/></g><g transform="rotate(-14 292 248)"><path d="M292,248 Q266,193.0 292,138 Q318,193.0 292,248 Z" fill="url(#aislddb414_17)"/><path d="M292,248 L292,138" stroke="#95B98F" stroke-width="2.6" opacity=".55" fill="none"/></g><g transform="rotate(12 292 248)"><path d="M292,248 Q266,193.0 292,138 Q318,193.0 292,248 Z" fill="url(#aislddb414_18)"/><path d="M292,248 L292,138" stroke="#95B98F" stroke-width="2.6" opacity=".55" fill="none"/></g><g transform="rotate(38 292 248)"><path d="M292,248 Q266,193.0 292,138 Q318,193.0 292,248 Z" fill="url(#aislddb414_19)"/><path d="M292,248 L292,138" stroke="#95B98F" stroke-width="2.6" opacity=".55" fill="none"/></g></g><g transform="rotate(-2 400 360)"><path d="M354,250 Q400,232 446,250 L412,476 Q400,492 388,476 Z" fill="url(#aislddb414_20)"/><path d="M360,280 q40,12 80,0" stroke="#935822" stroke-width="2.6" fill="none" opacity=".45"/><path d="M365,318 q40,12 70,0" stroke="#935822" stroke-width="2.6" fill="none" opacity=".45"/><path d="M370,356 q40,12 60,0" stroke="#935822" stroke-width="2.6" fill="none" opacity=".45"/><path d="M375,394 q40,12 50,0" stroke="#935822" stroke-width="2.6" fill="none" opacity=".45"/><path d="M380,432 q40,12 40,0" stroke="#935822" stroke-width="2.6" fill="none" opacity=".45"/><g transform="rotate(-40 400 248)"><path d="M400,248 Q374,193.0 400,138 Q426,193.0 400,248 Z" fill="url(#aislddb414_21)"/><path d="M400,248 L400,138" stroke="#95B98F" stroke-width="2.6" opacity=".55" fill="none"/></g><g transform="rotate(-14 400 248)"><path d="M400,248 Q374,193.0 400,138 Q426,193.0 400,248 Z" fill="url(#aislddb414_22)"/><path d="M400,248 L400,138" stroke="#95B98F" stroke-width="2.6" opacity=".55" fill="none"/></g><g transform="rotate(12 400 248)"><path d="M400,248 Q374,193.0 400,138 Q426,193.0 400,248 Z" fill="url(#aislddb414_23)"/><path d="M400,248 L400,138" stroke="#95B98F" stroke-width="2.6" opacity=".55" fill="none"/></g><g transform="rotate(38 400 248)"><path d="M400,248 Q374,193.0 400,138 Q426,193.0 400,248 Z" fill="url(#aislddb414_24)"/><path d="M400,248 L400,138" stroke="#95B98F" stroke-width="2.6" opacity=".55" fill="none"/></g></g><g transform="rotate(20 508 360)"><path d="M462,250 Q508,232 554,250 L520,476 Q508,492 496,476 Z" fill="url(#aislddb414_25)"/><path d="M468,280 q40,12 80,0" stroke="#905523" stroke-width="2.6" fill="none" opacity=".45"/><path d="M473,318 q40,12 70,0" stroke="#905523" stroke-width="2.6" fill="none" opacity=".45"/><path d="M478,356 q40,12 60,0" stroke="#905523" stroke-width="2.6" fill="none" opacity=".45"/><path d="M483,394 q40,12 50,0" stroke="#905523" stroke-width="2.6" fill="none" opacity=".45"/><path d="M488,432 q40,12 40,0" stroke="#905523" stroke-width="2.6" fill="none" opacity=".45"/><g transform="rotate(-40 508 248)"><path d="M508,248 Q482,193.0 508,138 Q534,193.0 508,248 Z" fill="url(#aislddb414_26)"/><path d="M508,248 L508,138" stroke="#95B98F" stroke-width="2.6" opacity=".55" fill="none"/></g><g transform="rotate(-14 508 248)"><path d="M508,248 Q482,193.0 508,138 Q534,193.0 508,248 Z" fill="url(#aislddb414_27)"/><path d="M508,248 L508,138" stroke="#95B98F" stroke-width="2.6" opacity=".55" fill="none"/></g><g transform="rotate(12 508 248)"><path d="M508,248 Q482,193.0 508,138 Q534,193.0 508,248 Z" fill="url(#aislddb414_28)"/><path d="M508,248 L508,138" stroke="#95B98F" stroke-width="2.6" opacity=".55" fill="none"/></g><g transform="rotate(38 508 248)"><path d="M508,248 Q482,193.0 508,138 Q534,193.0 508,248 Z" fill="url(#aislddb414_29)"/><path d="M508,248 L508,138" stroke="#95B98F" stroke-width="2.6" opacity=".55" fill="none"/></g></g></g><rect x="0" y="0" width="1200" height="480" fill="none"/></svg>