<svg xmlns="http://www.w3.org/2000/svg" viewBox="0 0 800 600" width="800" height="600" role="img" aria-label="storefront"><title>storefront</title><defs><radialGradient id="scenec7909_9" cx="34%" cy="22%" r="86%"><stop offset="0" stop-color="#FFFFFF"/><stop offset=".55" stop-color="#FEFDFC"/><stop offset="1" stop-color="#FCFBF7"/></radialGradient><filter id="scenec7909_1" x="-40%" y="-40%" width="180%" height="180%"><feGaussianBlur stdDeviation="20.5"/></filter><radialGradient id="scenec7909_2" cx="32%" cy="26%" r="78%"><stop offset="0" stop-color="#E6B1AD"/><stop offset=".46" stop-color="#C4453C"/><stop offset="1" stop-color="#6E2722"/></radialGradient><radialGradient id="scenec7909_3" cx="32%" cy="26%" r="78%"><stop offset="0" stop-color="#E6B1AD"/><stop offset=".46" stop-color="#C4453C"/><stop offset="1" stop-color="#6E2722"/></radialGradient><radialGradient id="scenec7909_4" cx="32%" cy="26%" r="78%"><stop offset="0" stop-color="#E6B1AD"/><stop offset=".46" stop-color="#C4453C"/><stop offset="1" stop-color="#6E2722"/></radialGradient><filter id="scenec7909_5" x="-40%" y="-40%" width="180%" height="180%"><feGaussianBlur stdDeviation="19.5"/></filter><radialGradient id="scenec7909_6" cx="32%" cy="26%" r="78%"><stop offset="0" stop-color="#EACCA3"/><stop offset=".46" stop-color="#D08A2E"/><stop offset="1" stop-color="#7D531C"/></radialGradient><radialGradient id="scenec7909_7" cx="32%" cy="26%" r="78%"><stop offset="0" stop-color="#EACCA3"/><stop offset=".46" stop-color="#D08A2E"/><stop offset="1" stop-color="#7D531C"/></radialGradient><radialGradient id="scenec7909_8" cx="32%" cy="26%" r="78%"><stop offset="0" stop-color="#EACCA3"/><stop offset=".46" stop-color="#D08A2E"/><stop offset="1" stop-color="#7D531C"/></radialGradient></defs><rect width="800" height="600" fill="url(#scenec7909_9)"/><rect x="120" y="180" width="560" height="330" rx="10" fill="#F3F1EC"/><rect x="120" y="180" width="560" height="330" rx="10" fill="none" stroke="#D8D3C8" stroke-width="3"/><path d="M112,248 L184,248 L174,312 L102,312 Z" fill="#F5C518"/><path d="M184,248 L256,248 L246,312 L174,312 Z" fill="#FFFFFF"/><path d="M256,248 L328,248 L318,312 L246,312 Z" fill="#F5C518"/><path d="M328,248 L400,248 L390,312 L318,312 Z" fill="#FFFFFF"/><path d="M400,248 L472,248 L462,312 L390,312 Z" fill="#F5C518"/><path d="M472,248 L544,248 L534,312 L462,312 Z" fill="#FFFFFF"/><path d="M544,248 L616,248 L606,312 L534,312 Z" fill="#F5C518"/><path d="M616,248 L688,248 L678,312 L606,312 Z" fill="#FFFFFF"/><rect x="106" y="236" width="588" height="20" rx="6" fill="#1B3EE8"/><path d="M102,312 L698,312 L690,326 L110,326 Z" fill="#132BA2" opacity=".25"/><rect x="248" y="186" width="304" height="46" rx="8" fill="#1B3EE8"/><rect x="266" y="200" width="268" height="6" rx="3" fill="#F5C518" opacity=".9"/><rect x="266" y="214" width="180" height="6" rx="3" fill="#FFFFFF" opacity=".5"/><rect x="352" y="352" width="96" height="158" rx="6" fill="#1B3EE8" opacity=".18"/><rect x="352" y="352" width="96" height="158" rx="6" fill="none" stroke="#1B3EE8" stroke-width="4"/><circle cx="434" cy="436" r="6" fill="#1B3EE8"/><rect x="168" y="352" width="140" height="104" rx="6" fill="#DCE6F5"/><rect x="168" y="352" width="140" height="104" rx="6" fill="none" stroke="#BFCBDC" stroke-width="3"/><path d="M176,448 L228,360" stroke="#FFFFFF" stroke-width="14" opacity=".55"/><rect x="496" y="352" width="140" height="104" rx="6" fill="#DCE6F5"/><rect x="496" y="352" width="140" height="104" rx="6" fill="none" stroke="#BFCBDC" stroke-width="3"/><path d="M504,448 L556,360" stroke="#FFFFFF" stroke-width="14" opacity=".55"/><g transform="translate(88,300) scale(0.26)"><ellipse cx="400" cy="476" rx="205" ry="30" fill="#22303C" opacity="0.2" filter="url(#scenec7909_1)"/><g><ellipse cx="288" cy="400" rx="104" ry="93.60000000000001" fill="url(#scenec7909_2)"/><ellipse cx="252.64" cy="362.56" rx="27.04" ry="18.3872" fill="#fff" opacity=".34" transform="rotate(-24 252.64 362.56)"/></g><g transform="rotate(0 288 314.72)"><path d="M288,314.72 q-8,-26 0,-40 q8,14 0,40 Z" fill="#3E7A3A"/></g><g transform="rotate(72 288 314.72)"><path d="M288,314.72 q-8,-26 0,-40 q8,14 0,40 Z" fill="#3E7A3A"/></g><g transform="rotate(144 288 314.72)"><path d="M288,314.72 q-8,-26 0,-40 q8,14 0,40 Z" fill="#3E7A3A"/></g><g transform="rotate(216 288 314.72)"><path d="M288,314.72 q-8,-26 0,-40 q8,14 0,40 Z" fill="#3E7A3A"/></g><g transform="rotate(288 288 314.72)"><path d="M288,314.72 q-8,-26 0,-40 q8,14 0,40 Z" fill="#3E7A3A"/></g><circle cx="288" cy="312.64" r="10.4" fill="#2F6330"/><g><ellipse cx="512" cy="394" rx="96" ry="86.4" fill="url(#scenec7909_3)"/><ellipse cx="479.36" cy="359.44" rx="24.96" ry="16.972800000000003" fill="#fff" opacity=".34" transform="rotate(-24 479.36 359.44)"/></g><g transform="rotate(0 512 315.28)"><path d="M512,315.28 q-8,-26 0,-40 q8,14 0,40 Z" fill="#3E7A3A"/></g><g transform="rotate(72 512 315.28)"><path d="M512,315.28 q-8,-26 0,-40 q8,14 0,40 Z" fill="#3E7A3A"/></g><g transform="rotate(144 512 315.28)"><path d="M512,315.28 q-8,-26 0,-40 q8,14 0,40 Z" fill="#3E7A3A"/></g><g transform="rotate(216 512 315.28)"><path d="M512,315.28 q-8,-26 0,-40 q8,14 0,40 Z" fill="#3E7A3A"/></g><g transform="rotate(288 512 315.28)"><path d="M512,315.28 q-8,-26 0,-40 q8,14 0,40 Z" fill="#3E7A3A"/></g><circle cx="512" cy="313.36" r="9.600000000000001" fill="#2F6330"/><g><ellipse cx="400" cy="442" rx="126" ry="113.4" fill="url(#scenec7909_4)"/><ellipse cx="357.15999999999997" cy="396.64" rx="32.76" ry="22.2768" fill="#fff" opacity=".34" transform="rotate(-24 357.15999999999997 396.64)"/></g><g transform="rotate(0 400 338.68)"><path d="M400,338.68 q-8,-26 0,-40 q8,14 0,40 Z" fill="#3E7A3A"/></g><g transform="rotate(72 400 338.68)"><path d="M400,338.68 q-8,-26 0,-40 q8,14 0,40 Z" fill="#3E7A3A"/></g><g transform="rotate(144 400 338.68)"><path d="M400,338.68 q-8,-26 0,-40 q8,14 0,40 Z" fill="#3E7A3A"/></g><g transform="rotate(216 400 338.68)"><path d="M400,338.68 q-8,-26 0,-40 q8,14 0,40 Z" fill="#3E7A3A"/></g><g transform="rotate(288 400 338.68)"><path d="M400,338.68 q-8,-26 0,-40 q8,14 0,40 Z" fill="#3E7A3A"/></g><circle cx="400" cy="336.16" r="12.600000000000001" fill="#2F6330"/></g><g transform="translate(468,300) scale(0.26)"><ellipse cx="400" cy="478" rx="195" ry="30" fill="#22303C" opacity="0.2" filter="url(#scenec7909_5)"/><g transform="rotate(-18 296 402)"><path d="M192,402 C192,306.32 316.8,300.08 370.88,350.0 C410.4,395.76 348.0,491.44 275.2,487.28 C214.88,481.04 192,443.6 192,402 Z" fill="url(#scenec7909_6)"/><ellipse cx="264.8" cy="362.48" rx="29.120000000000005" ry="18.72" fill="#fff" opacity=".30" transform="rotate(-22 264.8 362.48)"/><ellipse cx="331.36" cy="414.48" rx="35.36" ry="41.6" fill="#C9422C" opacity=".26"/></g><g transform="rotate(14 508 396)"><path d="M412,396 C412,307.68 527.2,301.92 577.12,348.0 C613.6,390.24 556.0,478.56 488.8,474.72 C433.12,468.96000000000004 412,434.4 412,396 Z" fill="url(#scenec7909_7)"/><ellipse cx="479.2" cy="359.52" rx="26.880000000000003" ry="17.28" fill="#fff" opacity=".30" transform="rotate(-22 479.2 359.52)"/><ellipse cx="540.64" cy="407.52" rx="32.64" ry="38.400000000000006" fill="#C9422C" opacity=".26"/></g><g transform="rotate(-4 402 446)"><path d="M280,446 C280,333.76 426.4,326.44 489.84000000000003,385.0 C536.2,438.68 463.0,550.92 377.6,546.04 C306.84000000000003,538.72 280,494.8 280,446 Z" fill="url(#scenec7909_8)"/><ellipse cx="365.4" cy="399.64" rx="34.160000000000004" ry="21.96" fill="#fff" opacity=".30" transform="rotate(-22 365.4 399.64)"/><ellipse cx="443.48" cy="460.64" rx="41.480000000000004" ry="48.800000000000004" fill="#C9422C" opacity=".26"/></g></g><path d="M114,478 L278,478 L262,536 L130,536 Z" fill="#C29A62"/><path d="M114,478 L278,478 L274,492 L118,492 Z" fill="#DCB781"/><path d="M149,492 L146,534" stroke="#907249" stroke-width="4" opacity=".45"/><path d="M193,492 L190,534" stroke="#907249" stroke-width="4" opacity=".45"/><path d="M237,492 L234,534" stroke="#907249" stroke-width="4" opacity=".45"/><path d="M494,478 L658,478 L642,536 L510,536 Z" fill="#C29A62"/><path d="M494,478 L658,478 L654,492 L498,492 Z" fill="#DCB781"/><path d="M529,492 L526,534" stroke="#907249" stroke-width="4" opacity=".45"/><path d="M573,492 L570,534" stroke="#907249" stroke-width="4" opacity=".45"/><path d="M617,492 L614,534" stroke="#907249" stroke-width="4" opacity=".45"/></svg>